<?xml version="1.0" encoding="UTF-8" standalone="no"?>
<!DOCTYPE svg PUBLIC "-//W3C//DTD SVG 1.1//EN" "http://www.w3.org/Graphics/SVG/1.1/DTD/svg11.dtd">
<svg width="100%" height="100%" viewBox="0 0 1200 276" version="1.1" xmlns="http://www.w3.org/2000/svg" xmlns:xlink="http://www.w3.org/1999/xlink" xml:space="preserve" xmlns:serif="http://www.serif.com/" style="fill-rule:evenodd;clip-rule:evenodd;stroke-linejoin:round;stroke-miterlimit:2;">
    <g id="Mesa-de-trabajo1" serif:id="Mesa de trabajo1" transform="matrix(1,0,0,0.689946,0,0)">
        <rect x="0" y="0" width="1200" height="400" style="fill:none;"/>
        <g id="Capa-1" serif:id="Capa 1" transform="matrix(1.21889,0,0,1.76665,-159.194,-1286.02)">
            <g id="g4003" transform="matrix(2.08039,0.0105806,-0.0105764,2.07957,44.6046,278.625)">
                <path id="path3202" d="M145.07,280.927C145.07,280.927 145.869,280.528 146.109,279.169L146.109,278.689C146.029,277.411 144.75,275.892 143.312,274.374C141.634,272.696 140.196,271.896 140.196,271.896C140.196,271.896 139.477,268.54 136.44,263.906C133.484,259.271 128.369,254.397 125.573,255.835C122.776,257.273 125.253,261.269 125.413,262.468C125.653,263.746 126.851,265.824 126.452,265.824C125.973,265.744 119.899,254.317 104.717,257.514C100.801,258.392 97.445,260.071 94.728,262.228L94.728,288.918C95.687,287.959 96.086,287.479 96.086,287.479C96.086,287.479 97.125,292.274 99.043,294.432C100.961,296.589 103.278,297.868 103.997,296.269C104.716,294.751 102.479,288.199 102.479,288.199C102.479,288.199 106.634,292.194 107.833,293.153C109.032,294.111 111.349,295.31 111.988,293.153C112.547,290.996 110.869,287.72 109.511,287.161C108.233,286.601 107.433,286.601 107.433,286.601C107.433,286.601 106.634,285.562 106.234,285.242C105.755,284.922 105.675,284.923 105.675,284.923C105.675,284.923 106.394,284.523 108.632,284.603C110.949,284.683 112.787,284.763 112.787,284.763C112.787,284.763 114.865,287.799 116.143,288.758C117.342,289.797 120.458,292.274 121.577,293.312C122.616,294.351 123.255,294.831 123.655,293.951C123.975,293.072 123.415,290.755 121.977,289.077C120.459,287.479 118.861,286.6 118.301,285.801C117.822,284.842 117.502,284.123 117.502,284.123C117.502,284.123 120.459,286.28 121.178,287C121.977,287.639 127.251,290.915 128.13,291.474C129.009,292.114 129.409,291.714 129.409,291.714C129.409,291.714 130.048,292.193 130.288,291.874C130.528,291.554 131.167,289.397 129.489,288.119C127.731,286.76 126.692,286.121 126.852,285.961C126.932,285.802 128.69,286.361 128.929,285.881C129.089,285.482 128.849,284.843 128.609,284.683C128.449,284.442 129.089,283.963 129.089,283.963C129.089,283.963 129.728,283.963 132.365,284.203C135.002,284.443 141.634,282.206 142.993,281.726C144.351,281.246 145.07,280.927 145.07,280.927ZM94.728,315.287C100.242,311.692 100.481,302.582 97.445,300.824C96.566,300.265 95.687,299.866 94.728,299.625L94.728,303.781C94.968,303.94 95.208,304.181 95.367,304.58C95.846,305.539 95.607,306.737 95.607,306.737C95.607,306.737 95.527,305.219 94.968,304.42C94.888,304.34 94.808,304.26 94.728,304.18L94.728,315.287ZM94.728,262.228C93.53,263.108 92.491,264.146 91.532,265.185L91.532,291.634C92.331,291.155 93.05,290.675 93.69,290.036C94.09,289.637 94.409,289.237 94.729,288.918L94.728,262.228ZM91.532,316.645C92.731,316.406 93.849,315.926 94.728,315.287L94.728,304.18C94.249,303.541 93.849,303.141 93.849,303.141C93.849,303.141 94.249,303.301 94.728,303.781L94.728,299.625C93.689,299.306 92.57,299.146 91.532,299.386L91.532,306.338C91.772,306.178 92.171,306.098 92.011,306.658C91.931,306.978 91.691,306.977 91.531,306.978L91.531,311.053C91.691,311.053 91.93,311.053 92.09,310.973C92.09,310.973 91.93,311.133 91.53,311.292L91.532,316.645ZM91.532,265.185C85.938,271.098 83.461,278.21 82.902,279.808C82.023,282.285 76.35,291.234 75.87,296.508C75.47,301.862 75.391,314.887 87.537,316.645C88.975,316.885 90.334,316.884 91.532,316.644L91.532,311.291C90.413,311.61 87.936,311.93 85.139,308.734C81.383,304.419 83.221,297.387 86.178,294.989C88.096,293.391 89.934,292.512 91.532,291.633L91.532,265.185ZM91.532,299.385L91.532,306.337C91.292,306.497 91.132,306.497 90.973,306.257C90.813,306.737 91.133,306.976 91.532,306.976L91.532,311.051C88.975,311.29 85.459,309.053 86.338,305.537C87.377,301.543 89.295,299.785 91.532,299.385Z" style="fill:rgb(46,117,163);fill-rule:nonzero;"/>
                <g id="g3217" transform="matrix(0.382511,0,0,0.382511,20.0893,125.613)">
                    <path id="rect3215" d="M227.414,246.939L240.697,246.442C247.827,246.175 257.617,251.182 257.057,260.316L253.575,317.115C253.139,324.237 250.069,328.005 244.426,328.006L226.915,328.006C219.78,328.005 216.779,323.487 216.274,316.37L212.295,260.316C211.792,253.197 217.295,247.318 227.414,246.939Z" style="fill:rgb(237,223,14);fill-rule:nonzero;"/>
                </g>
                <g id="g3221" transform="matrix(0.310775,-0.254495,0.254495,0.310775,-108.325,252.836)">
                    <path id="path3223" d="M364.994,242.27L378.277,241.772C385.406,241.505 395.196,246.512 394.637,255.646L391.156,312.445C390.719,319.567 387.65,323.335 382.007,323.335L364.496,323.336C357.361,323.335 354.36,318.817 353.856,311.7L349.877,255.646C349.371,248.529 354.875,242.648 364.994,242.27Z" style="fill:rgb(253,102,0);fill-rule:nonzero;"/>
                </g>
                <g id="g3225" transform="matrix(0.0782823,-0.371046,0.371046,0.0782823,-104.36,429.721)">
                    <path id="path3227" d="M485.005,307.459L498.289,306.962C505.418,306.695 515.209,311.701 514.649,320.836L511.168,377.636C510.732,384.757 507.662,388.525 502.019,388.526L484.507,388.526C477.372,388.526 474.373,384.007 473.867,376.89L469.889,320.836C469.384,313.719 474.888,307.838 485.005,307.459Z" style="fill:rgb(164,220,45);fill-rule:nonzero;"/>
                </g>
                <g id="g3229" transform="matrix(-0.139028,-0.265216,0.265216,-0.139028,13.9343,526.869)">
                    <path id="path3231" d="M584.441,445.677L597.724,445.18C604.855,444.914 614.645,449.921 614.084,459.054L610.604,515.854C610.166,522.975 607.099,526.744 601.455,526.744L583.944,526.744C576.81,526.744 573.809,522.226 573.305,515.109L569.325,459.055C568.821,451.937 574.324,446.057 584.441,445.677Z" style="fill:rgb(239,62,62);fill-rule:nonzero;"/>
                </g>
            </g>
            <path id="path2819" d="M1055.44,888.635L1055.44,866.589C1062.72,866.589 1068.86,864.097 1073.84,858.922C1078.64,853.746 1081.13,847.035 1081.13,838.984C1081.13,830.931 1078.83,824.222 1073.84,819.236C1069.05,814.252 1062.92,811.76 1055.44,811.76L1055.44,789.33C1064.07,789.521 1072.5,791.631 1080.17,796.039C1088.03,800.449 1094.17,806.584 1098.58,814.251C1102.98,821.73 1105.09,829.972 1105.09,838.79C1105.09,847.802 1102.99,856.044 1098.58,863.905C1093.97,871.764 1088.03,877.708 1080.36,882.117C1072.89,886.525 1064.45,888.635 1055.44,888.635ZM1055.44,789.329L1055.44,811.759L1055.25,811.759C1047.96,811.759 1041.83,814.251 1036.85,819.237C1032.05,824.413 1029.56,830.93 1029.56,838.983C1029.56,847.225 1032.05,853.936 1036.85,858.921C1041.64,864.096 1047.77,866.588 1055.25,866.588L1055.44,866.588L1055.44,888.634L1055.06,888.634C1041.45,888.634 1029.94,883.841 1020.36,874.256C1010.77,864.479 1005.98,852.786 1005.98,838.983C1005.98,824.221 1011.35,812.143 1022.28,802.173C1031.67,793.738 1042.6,789.329 1054.87,789.329L1055.44,789.329ZM685.25,888.443L685.25,866.971C692.726,866.971 698.86,864.287 703.653,859.112C708.637,853.936 711.13,847.225 711.13,838.79C711.13,830.548 708.638,823.837 703.653,818.852C698.86,813.868 692.726,811.375 685.25,811.375L685.25,789.712C689.083,790.096 692.726,791.054 696.177,792.588C701.161,794.696 705.763,797.956 709.98,802.173L709.98,791.821L733.751,791.821L733.751,886.333L709.98,886.333L709.98,876.173C705.378,880.775 700.779,883.84 695.986,885.758C692.726,887.293 689.083,888.06 685.25,888.443ZM757.524,791.822L781.295,791.822L781.295,802.75C785.32,798.148 789.922,794.89 794.906,792.781C799.89,790.48 805.26,789.33 811.01,789.33C816.953,789.33 822.321,790.863 827.114,793.739C831.907,796.615 835.741,800.832 838.618,806.392C842.261,800.831 847.052,796.615 852.421,793.739C857.98,790.863 863.923,789.33 870.441,789.33C877.152,789.33 883.095,790.863 888.08,794.123C893.256,797.189 896.898,801.216 899.199,806.393C901.306,811.376 902.457,819.43 902.457,830.74L902.457,886.335L878.686,886.335L878.686,838.217C878.686,827.481 877.344,820.196 874.661,816.553C871.978,812.91 867.95,810.994 862.583,810.994C858.558,810.994 854.915,812.144 851.655,814.446C848.397,816.553 846.096,819.813 844.561,823.839C842.836,828.058 842.069,834.575 842.069,843.585L842.069,886.336L818.298,886.336L818.298,840.519C818.298,831.892 817.53,825.757 816.382,822.115C815.038,818.281 813.122,815.597 810.63,813.679C808.138,811.954 805.263,810.995 801.62,810.995C797.784,810.995 794.141,812.145 790.884,814.447C787.816,816.554 785.323,820.006 783.79,824.224C782.065,828.441 781.298,835.15 781.298,844.162L781.298,886.337L757.527,886.337L757.527,791.822L757.524,791.822ZM934.471,752.904C938.69,752.904 942.141,754.438 945.207,757.314C948.082,760.381 949.617,764.023 949.617,768.242C949.617,772.65 948.275,776.101 945.207,779.169C942.332,782.236 938.689,783.578 934.664,783.578C930.445,783.578 926.803,782.045 923.736,778.977C920.859,776.101 919.326,772.267 919.326,768.049C919.326,763.831 920.859,760.189 923.736,757.314C926.612,754.246 930.254,752.904 934.471,752.904ZM922.586,791.822L946.357,791.822L946.357,886.334L922.586,886.334L922.586,791.822ZM965.336,755.204L989.109,755.204L989.109,886.333L965.336,886.333L965.336,755.204ZM514.627,781.085L497.565,797.381C485.871,785.111 472.835,778.977 458.457,778.977C446.187,778.977 435.835,783.195 427.592,791.438C419.156,799.874 414.939,810.034 414.939,822.112C414.939,830.739 416.856,838.216 420.499,844.924C424.142,851.444 429.51,856.619 436.22,860.453C443.121,864.286 450.598,866.011 458.841,866.011C465.935,866.011 472.452,864.863 478.204,862.178C484.146,859.494 490.665,854.701 497.566,847.801L514.053,864.863C504.659,874.256 495.649,880.584 487.213,884.226C478.97,887.675 469.384,889.402 458.457,889.402C438.711,889.402 422.415,883.267 409.57,870.613C396.917,857.961 390.591,841.858 390.591,822.112C390.591,809.459 393.466,798.148 399.41,788.179C405.161,778.402 413.404,770.35 424.14,764.408C434.875,758.273 446.378,755.205 458.839,755.205C469.383,755.205 479.544,757.506 489.321,761.915C499.099,766.516 507.533,772.842 514.627,781.085ZM685.25,789.712L685.25,811.375L685.059,811.375C677.582,811.375 671.639,813.868 666.655,818.852C661.862,824.028 659.37,830.739 659.37,838.79C659.37,847.034 661.862,853.743 666.847,859.112C671.831,864.287 677.966,866.971 685.06,866.971L685.251,866.971L685.251,888.443C683.909,888.634 682.376,888.634 680.843,888.634C668.573,888.634 658.029,884.032 649.018,874.447C640.2,865.054 635.789,853.168 635.789,839.174C635.789,824.604 640.006,812.717 648.633,803.323C657.26,794.122 667.805,789.329 680.075,789.329C681.99,789.329 683.525,789.521 685.25,789.712ZM533.414,755.204L556.995,755.204L556.995,801.407C561.597,797.381 566.39,794.313 570.989,792.396C575.782,790.288 580.384,789.329 585.177,789.329C594.378,789.329 602.431,792.588 608.757,799.106C614.318,804.665 617.001,813.102 617.001,823.836L617.001,886.333L593.612,886.333L593.612,844.732C593.612,833.804 593.227,826.328 592.077,822.494C591.12,818.66 589.202,815.976 586.901,814.058C584.409,812.141 581.342,811.183 577.7,811.183C572.716,811.183 568.688,812.717 565.239,815.976C561.788,818.851 559.296,823.261 557.954,828.82C557.378,831.697 556.995,838.023 556.995,848.183L556.995,886.332L533.414,886.332L533.414,755.204Z" style="fill:rgb(46,117,163);fill-rule:nonzero;"/>
            <path id="path2913" d="M1092.25,935.988L1092.25,932.92C1094.17,932.92 1095.7,932.537 1097.23,931.578C1098.77,930.619 1099.92,929.277 1100.68,927.553L1104.13,927.553C1103.18,930.237 1101.45,932.346 1099.53,933.879C1097.43,935.221 1095.12,935.988 1092.44,935.988L1092.25,935.988ZM1092.25,924.101L1092.25,921.417L1101.45,921.417C1100.88,918.733 1099.92,916.624 1098.19,915.282C1096.66,913.94 1094.74,913.173 1092.25,913.173L1092.25,910.107L1092.44,910.107C1096.28,910.107 1099.15,911.449 1101.45,913.941C1103.75,916.433 1105.1,919.882 1105.1,923.91L1105.1,924.101L1092.25,924.101ZM1092.25,910.107L1092.25,913.173L1092.06,913.173C1089.76,913.173 1087.65,913.941 1086.12,915.282C1084.39,916.815 1083.43,918.925 1083.05,921.417L1092.25,921.417L1092.25,924.101L1082.86,924.101C1083.05,926.785 1084.01,928.894 1085.73,930.427C1087.46,932.152 1089.76,932.919 1092.25,932.919L1092.25,935.987C1088.8,935.987 1085.73,934.643 1083.43,932.151C1080.94,929.659 1079.6,926.592 1079.6,923.141C1079.6,919.307 1080.94,916.241 1083.24,913.748C1085.73,911.449 1088.61,910.299 1092.25,910.107ZM1052.18,935.988L1052.18,933.111L1052.37,933.111C1054.87,933.111 1056.97,931.961 1058.89,930.045C1060.62,928.127 1061.58,925.635 1061.58,922.951C1061.58,920.267 1060.62,917.967 1058.89,916.049C1056.97,914.133 1054.87,913.174 1052.37,913.174L1052.18,913.174L1052.18,910.299L1052.57,910.299C1054.48,910.299 1056.02,910.682 1057.74,911.449C1059.28,912.215 1060.62,913.365 1061.58,914.707L1061.58,910.873L1064.64,910.873L1064.64,935.221L1061.58,935.221L1061.58,931.387C1060.62,932.92 1059.28,933.879 1057.55,934.838C1056.02,935.604 1054.1,935.986 1052.18,935.986L1052.18,935.988L1052.18,935.988ZM1072.7,935.22L1069.63,935.22L1069.63,910.872L1072.5,910.872L1072.5,913.747C1073.27,912.599 1074.23,911.831 1075,911.255C1075.95,910.681 1077.1,910.489 1078.26,910.489L1078.26,913.94C1076.34,914.131 1074.8,914.706 1074.04,915.665C1073.27,916.624 1072.7,918.349 1072.7,920.458L1072.7,935.22ZM1052.18,910.299L1052.18,913.174C1049.69,913.174 1047.58,914.133 1045.66,916.049C1043.94,917.967 1042.98,920.459 1042.98,923.334C1042.98,926.018 1043.94,928.318 1045.66,930.236C1047.58,932.152 1049.69,932.92 1052.18,933.111L1052.18,935.988C1048.73,935.988 1045.66,934.644 1043.36,932.345C1040.87,929.853 1039.72,926.784 1039.72,923.142C1039.72,919.5 1040.87,916.433 1043.36,913.941C1045.66,911.64 1048.73,910.299 1052.18,910.299ZM1006.75,913.941L1006.75,911.064L1014.99,935.22L1016.91,935.22L1022.66,916.624L1028.41,935.22L1030.52,935.22L1038.76,910.872L1035.31,910.872L1029.37,929.085L1023.81,910.872L1021.51,910.872L1015.95,929.085L1010.01,910.872L1006.75,910.872L1006.75,913.941L1006.75,913.941ZM1006.75,910.873L1006.75,913.941L1002.14,913.941L1002.14,935.22L999.079,935.22L999.079,913.941L994.477,913.941L994.477,910.873L999.079,910.873L999.079,903.014L1002.14,903.014L1002.14,910.873L1006.75,910.873ZM968.022,935.988L968.022,932.92L968.213,932.92C970.705,932.92 973.006,931.961 974.731,930.045C976.456,928.318 977.415,925.826 977.415,922.951C977.415,920.076 976.456,917.775 974.731,915.857C973.006,914.132 970.706,913.173 968.022,913.173L968.022,910.107C971.471,910.107 974.54,911.449 977.032,913.748C979.524,916.24 980.675,919.309 980.675,922.76C980.675,926.403 979.525,929.469 977.032,932.153C974.54,934.645 971.665,935.989 968.214,935.989L968.022,935.988ZM988.726,935.22L985.659,935.22L985.659,913.556L982.399,913.556L982.399,910.872L985.659,910.872L985.659,910.106C985.659,907.612 986.233,905.696 987.575,904.354C988.919,903.204 990.835,902.627 993.518,902.627L993.903,902.627L993.903,905.313C991.985,905.313 990.643,905.696 989.876,906.463C989.11,907.229 988.726,908.379 988.726,910.106L988.726,910.872L993.904,910.872L993.904,913.556L988.726,913.556L988.726,935.22ZM968.022,910.107L968.022,913.173L967.829,913.173C965.337,913.173 963.229,914.132 961.503,915.857C959.587,917.775 958.819,920.267 958.819,922.951C958.819,925.826 959.587,928.318 961.503,930.045C963.23,931.961 965.337,932.92 968.023,932.92L968.023,935.988C964.572,935.988 961.503,934.644 959.203,932.152C956.711,929.66 955.369,926.593 955.369,923.142C955.369,919.499 956.711,916.433 959.203,913.941C961.695,911.255 964.572,910.107 967.83,910.107L968.022,910.107ZM887.502,935.988L887.502,932.92C890.186,932.92 892.295,931.961 894.213,930.045C895.938,928.318 896.705,925.826 896.705,922.951C896.705,920.076 895.937,917.775 894.021,915.857C892.294,914.132 890.185,913.173 887.501,913.173L887.501,910.107C890.952,910.107 893.827,911.449 896.319,913.748C898.811,916.24 900.155,919.309 900.155,922.76C900.155,926.403 898.811,929.469 896.512,932.153C894.022,934.644 890.954,935.988 887.502,935.988ZM903.797,910.873L906.865,910.873L906.865,913.557C907.824,912.6 908.974,911.641 910.125,911.065C911.467,910.682 912.809,910.299 914.533,910.299C916.26,910.299 917.984,910.682 919.326,911.256C920.668,912.024 921.818,912.983 922.586,914.133C923.16,915.092 923.543,916.049 923.928,917.391C924.119,918.541 924.311,920.268 924.311,922.569L924.311,935.221L921.051,935.221L921.051,921.609C921.051,918.734 920.477,916.625 919.518,915.283C918.368,913.941 916.643,913.365 914.151,913.365C912.809,913.365 911.467,913.556 910.508,914.133C909.358,914.707 908.59,915.666 907.824,916.625C907.439,917.391 907.248,918.158 907.056,918.926C906.865,919.883 906.865,921.227 906.865,923.334L906.865,935.221L903.797,935.221L903.797,910.873ZM934.471,926.017L937.539,926.017C937.539,928.126 938.113,929.66 939.072,930.81C940.222,931.96 941.564,932.537 943.291,932.537C945.207,932.537 946.74,931.961 947.891,930.81C949.042,929.659 949.618,928.126 949.618,926.017C949.618,923.142 947.317,920.841 942.716,919.308C942.333,919.308 942.142,919.117 941.948,919.117C939.456,918.349 937.923,917.199 936.772,916.049C935.813,914.707 935.239,913.174 935.239,911.065C935.239,908.573 936.007,906.465 937.731,904.739C939.264,903.206 941.374,902.247 943.866,902.247C946.358,902.247 948.276,903.015 949.618,904.548C951.151,906.081 951.919,908.191 952.11,910.874L949.042,910.874C948.851,909.149 948.276,907.808 947.509,906.849C946.55,905.89 945.4,905.316 943.866,905.316C942.332,905.316 940.991,905.89 940.032,906.849C938.882,907.999 938.499,909.341 938.499,910.874C938.499,911.833 938.499,912.407 938.882,913.175C939.265,913.751 939.65,914.325 940.415,914.708C940.991,915.284 942.333,915.858 944.249,916.435C945.399,916.818 946.167,917.201 946.741,917.392C948.85,918.16 950.384,919.119 951.343,920.46C952.302,921.801 952.685,923.335 952.685,925.444C952.685,928.704 951.919,931.196 950.193,933.112C948.468,935.03 946.168,935.989 943.293,935.989C940.799,935.989 938.5,935.03 936.965,933.303C935.24,931.387 934.473,929.086 934.473,926.02L934.473,926.017L934.471,926.017ZM887.502,910.107L887.502,913.173L887.311,913.173C884.819,913.173 882.518,914.132 880.793,915.857C879.066,917.775 878.109,920.267 878.109,922.951C878.109,925.826 879.066,928.318 880.793,930.045C882.709,931.961 884.818,932.92 887.502,932.92L887.502,935.988C883.859,935.988 880.984,934.644 878.492,932.152C876,929.66 874.849,926.593 874.849,923.142C874.849,919.499 875.999,916.433 878.492,913.941C880.984,911.255 883.859,910.107 887.31,910.107L887.502,910.107ZM838.233,935.988L838.233,933.111C840.725,933.111 842.835,931.961 844.753,930.045C846.478,928.127 847.437,925.635 847.437,922.951C847.437,920.267 846.478,917.967 844.753,916.049C842.835,914.133 840.726,913.174 838.233,913.174L838.233,910.299L838.424,910.299C840.342,910.299 842.067,910.682 843.602,911.449C845.135,912.215 846.477,913.365 847.436,914.707L847.436,910.873L850.502,910.873L850.502,935.221L847.436,935.221L847.436,931.387C846.477,932.92 845.135,933.879 843.602,934.838C841.875,935.604 840.151,935.986 838.233,935.986L838.233,935.988ZM857.596,935.22L857.596,913.941L852.994,913.941L852.994,910.873L857.596,910.873L857.596,903.014L860.856,903.014L860.856,910.873L865.456,910.873L865.456,913.941L860.856,913.941L860.856,935.22L857.596,935.22ZM871.208,907.998L867.948,907.998L867.948,903.014L871.208,903.014L871.208,907.998ZM867.948,935.22L867.948,910.872L871.208,910.872L871.208,935.22L867.948,935.22ZM838.233,910.299L838.233,913.174C835.549,913.174 833.44,914.133 831.524,916.049C829.797,917.967 828.84,920.459 828.84,923.334C828.84,926.018 829.797,928.318 831.524,930.236C833.44,932.152 835.549,932.92 838.233,933.111L838.233,935.988L838.042,935.988C834.591,935.988 831.524,934.644 829.224,932.345C826.732,929.853 825.581,926.784 825.581,923.142C825.581,919.5 826.731,916.433 829.224,913.941C831.524,911.64 834.59,910.299 838.233,910.299ZM799.124,935.988L799.124,932.92C801.81,932.92 803.917,931.961 805.835,930.045C807.56,928.318 808.519,925.826 808.519,922.951C808.519,920.076 807.56,917.775 805.835,915.857C803.917,914.132 801.81,913.173 799.124,913.173L799.124,910.107C802.575,910.107 805.452,911.449 807.944,913.748C810.436,916.24 811.778,919.309 811.778,922.76C811.778,926.403 810.436,929.469 808.135,932.153C805.643,934.644 802.575,935.988 799.124,935.988ZM818.487,935.22L815.421,935.22L815.421,910.872L818.296,910.872L818.296,913.747C819.064,912.599 820.021,911.831 820.788,911.255C821.747,910.681 822.897,910.489 824.048,910.489L824.048,913.94C822.13,914.131 820.788,914.706 819.829,915.665C819.063,916.624 818.487,918.349 818.487,920.458L818.487,935.22ZM799.125,910.107L799.125,913.173L798.932,913.173C796.44,913.173 794.332,914.132 792.414,915.857C790.689,917.775 789.73,920.267 789.73,922.951C789.73,925.826 790.689,928.318 792.414,930.045C794.332,931.961 796.439,932.92 799.125,932.92L799.125,935.988C795.674,935.988 792.605,934.644 790.113,932.152C787.812,929.66 786.47,926.593 786.47,923.142C786.47,919.499 787.812,916.433 790.113,913.941C792.605,911.255 795.482,910.107 798.931,910.107L799.125,910.107ZM771.518,935.988L771.518,933.111C774.01,932.92 776.12,931.961 778.036,930.045C779.763,928.127 780.722,925.826 780.722,922.951C780.722,920.267 779.763,917.967 778.036,916.049C776.12,914.133 774.011,913.174 771.518,913.174L771.518,910.299L771.709,910.299C775.16,910.299 778.035,911.449 780.527,913.942C782.828,916.434 783.978,919.501 783.978,923.143C783.978,926.785 782.828,929.854 780.335,932.153C778.036,934.644 774.969,935.988 771.518,935.988ZM771.518,910.299L771.518,913.174L771.327,913.174C768.835,913.174 766.725,914.133 764.809,916.242C763.082,918.158 762.123,920.459 762.123,923.334C762.123,926.018 763.082,928.127 765,930.045C766.725,932.152 768.834,933.111 771.326,933.111L771.517,933.111L771.517,935.988L771.326,935.988C769.408,935.988 767.875,935.603 766.342,934.838C764.809,934.07 763.467,933.111 762.123,931.578L762.123,935.221L759.057,935.221L759.057,903.014L762.123,903.014L762.123,914.899C763.467,913.366 765,912.215 766.533,911.45C768.067,910.681 769.602,910.299 771.518,910.299ZM741.803,935.988L741.803,933.111C744.295,933.111 746.596,931.961 748.321,930.045C750.239,928.127 751.198,925.635 751.198,922.951C751.198,920.267 750.239,917.967 748.321,916.049C746.596,914.133 744.296,913.174 741.995,913.174L741.803,913.174L741.803,910.299L741.994,910.299C743.912,910.299 745.637,910.682 747.17,911.449C748.705,912.215 750.047,913.365 751.197,914.707L751.197,910.873L754.263,910.873L754.263,935.221L751.197,935.221L751.197,931.387C750.238,932.92 748.896,933.879 747.17,934.838C745.445,935.604 743.721,935.986 741.803,935.986L741.803,935.988ZM741.803,910.299L741.803,913.174C739.311,913.174 737.01,914.133 735.285,916.049C733.367,917.967 732.408,920.459 732.408,923.334C732.408,926.018 733.367,928.318 735.285,930.236C737.01,932.152 739.31,932.92 741.803,933.111L741.803,935.988C738.16,935.988 735.285,934.644 732.793,932.345C730.492,929.853 729.15,926.784 729.15,923.142C729.15,919.5 730.492,916.433 732.793,913.941C735.286,911.64 738.161,910.299 741.803,910.299ZM697.709,935.988L697.709,932.92C700.393,932.92 702.502,931.961 704.227,930.045C706.145,928.318 706.913,925.826 706.913,922.951C706.913,920.076 706.145,917.775 704.227,915.857C702.502,914.132 700.393,913.173 697.709,913.173L697.709,910.107C701.16,910.107 704.035,911.449 706.527,913.748C709.019,916.24 710.361,919.309 710.361,922.76C710.361,926.403 709.019,929.469 706.527,932.153C704.227,934.644 701.161,935.988 697.709,935.988ZM714.004,935.22L714.004,903.013L717.072,903.013L717.072,935.22L714.004,935.22ZM722.249,935.22L722.249,903.013L725.317,903.013L725.317,935.22L722.249,935.22ZM697.709,910.107L697.709,913.173L697.518,913.173C695.026,913.173 692.726,914.132 691.001,915.857C689.274,917.775 688.317,920.267 688.317,922.951C688.317,925.826 689.274,928.318 691.001,930.045C692.726,931.961 695.026,932.92 697.709,932.92L697.709,935.988C694.066,935.988 691.192,934.644 688.7,932.152C686.208,929.66 685.058,926.593 685.058,923.142C685.058,919.499 686.208,916.433 688.7,913.941C691.192,911.255 694.067,910.107 697.518,910.107L697.709,910.107ZM624.478,935.988L624.478,932.728C625.82,932.537 626.97,932.152 627.929,931.386C629.079,930.427 630.228,929.085 631.378,926.976L624.478,920.65L624.478,915.474C626.011,914.706 626.97,914.132 627.736,913.173C628.504,912.214 628.886,911.064 628.886,909.722C628.886,908.572 628.503,907.421 627.736,906.656C626.779,905.697 625.82,905.314 624.67,905.314L624.479,905.314L624.479,902.246L624.862,902.246C626.78,902.246 628.505,903.014 630.038,904.547C631.573,906.08 632.339,907.807 632.339,909.914C632.339,911.641 631.765,912.982 630.614,914.516C629.655,915.858 628.122,916.817 626.012,917.776L632.723,923.911L636.364,913.749L640.007,913.749L635.023,926.019L642.308,932.73L640.201,935.031L633.681,929.088C632.724,931.389 631.38,932.922 629.656,934.264C628.123,935.223 626.396,935.797 624.48,935.989L624.48,935.988L624.478,935.988ZM678.347,911.256C677.005,909.34 675.281,907.807 673.556,906.848C671.829,905.889 669.72,905.506 667.421,905.506C663.778,905.506 660.71,906.848 658.218,909.34C655.534,912.024 654.384,915.283 654.384,918.926C654.384,922.951 655.534,926.211 658.218,928.895C660.71,931.579 663.779,932.92 667.421,932.92C669.72,932.92 671.638,932.346 673.556,931.387C675.281,930.619 676.814,929.086 678.156,927.362L681.99,927.362C680.457,930.046 678.541,932.153 676.049,933.688C673.557,935.221 670.68,935.989 667.613,935.989C662.82,935.989 658.986,934.262 655.726,931.003C652.466,927.745 650.933,923.72 650.933,918.927C650.933,916.626 651.318,914.517 652.275,912.407C653.043,910.491 654.384,908.573 656.109,907.04C657.644,905.507 659.369,904.165 661.287,903.397C663.203,902.629 665.312,902.247 667.422,902.247C670.68,902.247 673.557,903.015 676.24,904.548C678.732,906.273 680.842,908.382 682.183,911.257L678.347,911.257L678.347,911.256ZM624.478,902.246L624.478,905.314C623.328,905.314 622.177,905.697 621.41,906.656C620.644,907.422 620.26,908.572 620.26,909.914C620.26,910.873 620.451,911.832 621.028,912.791C621.602,913.557 622.561,914.516 623.903,915.666C624.094,915.666 624.288,915.475 624.479,915.475L624.479,920.651L622.752,919.118C621.219,919.886 619.877,920.843 619.109,921.993C618.343,923.335 617.767,924.677 617.767,926.212C617.767,928.128 618.343,929.661 619.494,931.005C620.836,932.153 622.178,932.73 624.094,932.73L624.479,932.73L624.479,935.99L623.903,935.99C621.219,935.99 619.11,935.031 617.194,933.113C615.467,931.197 614.51,928.896 614.51,926.213C614.51,924.295 615.084,922.379 616.043,920.844C617.193,919.119 618.727,917.778 620.645,917.01C619.11,915.668 618.153,914.518 617.768,913.559C617.194,912.409 616.811,911.26 616.811,909.916C616.811,907.809 617.577,906.082 619.11,904.549C620.644,903.205 622.368,902.437 624.478,902.246ZM590.544,944.806L590.544,941.738C593.228,941.738 595.528,940.972 597.255,939.054C598.98,937.136 599.747,934.644 599.747,931.577L599.747,931.001C598.597,932.536 597.255,933.878 595.72,934.644C594.187,935.412 592.462,935.794 590.736,935.794L590.545,935.794L590.545,932.919C592.846,932.919 595.147,931.96 596.871,930.044C598.789,928.126 599.748,925.825 599.748,923.142C599.748,920.459 598.789,917.966 596.871,916.048C595.146,914.132 593.037,913.173 590.545,913.173L590.545,910.298C592.463,910.298 594.188,910.681 595.721,911.448C597.256,912.022 598.598,913.364 599.748,914.897L599.748,910.872L602.814,910.872L602.814,931.194C602.814,935.602 601.664,938.862 599.556,941.163C597.447,943.655 594.57,944.806 590.736,944.806L590.544,944.806ZM590.544,910.299L590.544,913.174C587.86,913.174 585.942,914.133 584.218,915.858C582.302,917.776 581.343,920.077 581.343,922.952C581.343,925.636 582.302,928.128 584.218,930.046C585.945,931.962 587.861,932.921 590.544,932.921L590.544,935.796C587.093,935.796 584.026,934.646 581.726,932.153C579.234,929.661 578.083,926.594 578.083,922.952C578.083,919.31 579.233,916.434 581.726,913.942C584.027,911.45 587.093,910.299 590.353,910.299L590.544,910.299ZM590.544,941.738L590.544,944.806C587.86,944.806 585.751,944.038 583.835,942.888C581.726,941.355 580.575,939.628 580.001,937.329L583.644,937.329C584.027,938.671 584.986,939.821 586.136,940.587C587.478,941.355 588.628,941.738 590.544,941.738ZM491.621,935.988L491.621,933.111C494.113,933.111 496.223,931.961 498.14,930.045C500.057,928.127 500.824,925.635 500.824,922.951C500.824,920.267 500.057,917.967 498.14,916.049C496.223,914.133 494.114,913.174 491.814,913.174L491.622,913.174L491.622,910.299L491.814,910.299C493.731,910.299 495.457,910.682 496.99,911.449C498.524,912.215 499.866,913.365 500.824,914.707L500.824,910.873L503.891,910.873L503.891,935.221L500.824,935.221L500.824,931.387C499.866,932.92 498.524,933.879 496.99,934.838C495.264,935.604 493.54,935.986 491.622,935.986L491.622,935.988L491.621,935.988ZM512.135,935.22L508.875,935.22L508.875,910.872L511.942,910.872L511.942,913.747C512.71,912.599 513.476,911.831 514.434,911.255C515.202,910.681 516.352,910.489 517.501,910.489L517.501,913.94C515.584,914.131 514.242,914.706 513.284,915.665C512.516,916.624 512.134,918.349 512.134,920.458L512.134,935.22L512.135,935.22ZM520.378,910.873L523.445,910.873L523.445,913.557C524.404,912.6 525.362,911.641 526.704,911.065C528.047,910.682 529.389,910.299 531.114,910.299C532.839,910.299 534.373,910.682 535.906,911.256C537.249,912.024 538.398,912.983 539.166,914.133C539.741,915.092 540.124,916.049 540.315,917.391C540.699,918.541 540.699,920.268 540.699,922.569L540.699,935.221L537.632,935.221L537.632,921.609C537.632,918.734 537.057,916.625 536.099,915.283C534.949,913.941 533.223,913.365 530.731,913.365C529.197,913.365 528.047,913.556 526.897,914.133C525.938,914.707 524.98,915.666 524.405,916.625C524.021,917.391 523.83,918.158 523.637,918.926C523.446,919.883 523.446,921.227 523.446,923.334L523.446,935.221L520.379,935.221L520.379,910.873L520.378,910.873ZM548.942,907.998L545.876,907.998L545.876,903.014L548.942,903.014L548.942,907.998ZM545.876,935.22L545.876,910.872L548.942,910.872L548.942,935.22L545.876,935.22ZM553.929,910.873L556.995,910.873L556.995,913.557C557.954,912.6 559.104,911.641 560.446,911.065C561.596,910.682 563.13,910.299 564.663,910.299C566.581,910.299 568.114,910.682 569.456,911.256C570.989,912.024 571.948,912.983 572.907,914.133C573.481,915.092 573.866,916.049 574.057,917.391C574.248,918.541 574.44,920.268 574.44,922.569L574.44,935.221L571.374,935.221L571.374,921.609C571.374,918.734 570.798,916.625 569.647,915.283C568.496,913.941 566.772,913.365 564.28,913.365C562.938,913.365 561.788,913.556 560.637,914.133C559.487,914.707 558.719,915.666 558.145,916.625C557.762,917.391 557.377,918.158 557.186,918.926C557.186,919.883 556.995,921.227 556.995,923.334L556.995,935.221L553.929,935.221L553.929,910.873ZM491.621,910.299L491.621,913.174C488.937,913.174 486.829,914.133 485.103,916.049C483.186,917.967 482.227,920.459 482.227,923.334C482.227,926.018 483.186,928.318 485.103,930.236C486.829,932.152 488.937,932.92 491.621,933.111L491.621,935.988C487.979,935.988 484.912,934.644 482.611,932.345C480.119,929.853 478.968,926.784 478.968,923.142C478.968,919.5 480.31,916.433 482.611,913.941C485.104,911.64 487.98,910.299 491.621,910.299ZM464.016,935.988L464.016,932.92C465.741,932.92 467.466,932.537 469,931.578C470.342,930.619 471.492,929.277 472.259,927.553L475.902,927.553C474.752,930.237 473.218,932.346 471.109,933.879C469.001,935.221 466.7,935.986 464.016,935.986L464.016,935.988ZM464.016,924.101L464.016,921.417L473.218,921.417C472.643,918.731 471.492,916.624 469.958,915.282C468.425,913.94 466.315,913.173 464.016,913.173L464.016,910.105L464.207,910.105C467.85,910.105 470.917,911.449 473.218,913.941C475.518,916.433 476.668,919.882 476.668,923.91L476.668,924.101L464.016,924.101ZM402.284,917.39L415.896,917.39L415.896,920.65L402.284,920.65L402.284,932.152L415.896,932.152L415.896,935.22L399.025,935.22L399.025,903.013L415.896,903.013L415.896,906.079L402.284,906.079L402.284,917.39ZM464.016,910.107L464.016,913.173L463.632,913.173C461.331,913.173 459.414,913.941 457.689,915.282C455.964,916.815 455.005,918.925 454.622,921.417L464.017,921.417L464.017,924.101L454.622,924.101C454.814,926.785 455.772,928.894 457.498,930.427C459.224,932.152 461.332,932.919 464.017,932.919L464.017,935.987C460.374,935.987 457.498,934.643 455.006,932.151C452.514,929.659 451.363,926.592 451.363,923.141C451.363,919.307 452.513,916.241 455.006,913.746C457.306,911.449 460.373,910.299 464.016,910.107ZM430.657,921.609L430.657,924.484L420.113,924.484L420.113,921.609L430.657,921.609ZM450.404,935.22L435.834,935.22L435.834,903.013L438.901,903.013L438.901,932.152L450.404,932.152L450.404,935.22Z" style="fill:rgb(46,117,163);fill-rule:nonzero;"/>
        </g>
    </g>
</svg>
