<?xml version="1.0" encoding="UTF-8" standalone="no"?>
<!DOCTYPE svg PUBLIC "-//W3C//DTD SVG 1.1//EN" "http://www.w3.org/Graphics/SVG/1.1/DTD/svg11.dtd">
<svg width="100%" height="100%" viewBox="0 0 1024 213" version="1.1" xmlns="http://www.w3.org/2000/svg" xmlns:xlink="http://www.w3.org/1999/xlink" xml:space="preserve" xmlns:serif="http://www.serif.com/" style="fill-rule:evenodd;clip-rule:evenodd;stroke-linejoin:round;stroke-miterlimit:2;">
    <g id="Mesa-de-trabajo1" serif:id="Mesa de trabajo1" transform="matrix(1,0,0,0.353686,0,0)">
        <rect x="0" y="0" width="1024" height="600" style="fill:none;"/>
        <g transform="matrix(2.69077,0,0,7.60779,-3713.04,-13368.1)">
            <g transform="matrix(0.16621,0,0,0.16621,1200.59,1531.49)">
                <path d="M1470.99,1809.75L1470.99,1733.43L1492.11,1733.43C1498.02,1733.43 1503.36,1734.83 1508.15,1737.63C1512.94,1740.42 1516.69,1744.35 1519.42,1749.39C1522.14,1754.44 1523.54,1760.09 1523.61,1766.35L1523.61,1776.25C1523.61,1782.61 1522.27,1788.34 1519.6,1793.44C1516.93,1798.55 1513.2,1802.53 1508.41,1805.39C1503.62,1808.26 1498.28,1809.71 1492.37,1809.75L1470.99,1809.75ZM1473.82,1736.27L1473.82,1806.91L1492.11,1806.91C1497.46,1806.91 1502.32,1805.61 1506.71,1803.01C1511.09,1800.41 1514.53,1796.77 1517.01,1792.11C1519.49,1787.44 1520.75,1782.26 1520.78,1776.57L1520.78,1766.77C1520.78,1761.07 1519.57,1755.9 1517.14,1751.25C1514.71,1746.61 1511.32,1742.96 1506.97,1740.33C1502.62,1737.69 1497.81,1736.33 1492.53,1736.27L1473.82,1736.27Z" style="fill:white;fill-rule:nonzero;"/>
                <path d="M1469.87,1809.75C1469.87,1810.36 1470.37,1810.86 1470.99,1810.86L1492.38,1810.86C1498.49,1810.83 1504.03,1809.32 1508.99,1806.35C1513.95,1803.38 1517.82,1799.25 1520.59,1793.96C1523.35,1788.71 1524.73,1782.81 1524.73,1776.25L1524.73,1766.34C1524.66,1759.89 1523.21,1754.07 1520.4,1748.86C1517.57,1743.63 1513.68,1739.56 1508.71,1736.66C1503.76,1733.77 1498.22,1732.32 1492.11,1732.32L1470.99,1732.32C1470.37,1732.32 1469.87,1732.82 1469.87,1733.43L1469.87,1809.75ZM1472.11,1808.63L1492.37,1808.63C1498.06,1808.59 1503.22,1807.2 1507.84,1804.43C1512.45,1801.68 1516.04,1797.84 1518.61,1792.93C1521.2,1787.98 1522.49,1782.42 1522.49,1776.25C1522.49,1776.25 1522.49,1766.35 1522.49,1766.36C1522.42,1760.3 1521.08,1754.82 1518.43,1749.92C1515.81,1745.06 1512.19,1741.28 1507.59,1738.59C1502.97,1735.9 1497.81,1734.55 1492.11,1734.55L1472.11,1734.55L1472.11,1808.63ZM1473.82,1735.15C1473.2,1735.15 1472.7,1735.65 1472.7,1736.27L1472.7,1806.91C1472.7,1807.53 1473.2,1808.03 1473.82,1808.03L1492.11,1808.03C1497.67,1808.03 1502.72,1806.68 1507.28,1803.97C1511.84,1801.26 1515.41,1797.49 1517.99,1792.63C1520.56,1787.81 1521.86,1782.46 1521.9,1776.58C1521.9,1776.57 1521.9,1766.77 1521.9,1766.77C1521.9,1760.88 1520.64,1755.54 1518.13,1750.74C1515.6,1745.9 1512.07,1742.12 1507.55,1739.37C1503.03,1736.63 1498.03,1735.22 1492.55,1735.15C1492.53,1735.15 1473.82,1735.15 1473.82,1735.15ZM1474.94,1805.8L1492.11,1805.8C1497.25,1805.8 1501.92,1804.55 1506.14,1802.05C1510.35,1799.55 1513.64,1796.06 1516.02,1791.58C1518.42,1787.08 1519.63,1782.07 1519.66,1776.57L1519.66,1766.77C1519.66,1761.26 1518.49,1756.26 1516.15,1751.77C1513.82,1747.31 1510.57,1743.81 1506.39,1741.28C1502.21,1738.75 1497.59,1737.45 1492.53,1737.38L1474.94,1737.38L1474.94,1805.8Z" style="fill:white;"/>
                <path d="M1601.63,1771.9L1563.37,1771.9L1563.37,1806.91L1606.98,1806.91L1606.98,1809.75L1560.54,1809.75L1560.54,1733.43L1606.98,1733.43L1606.98,1736.27L1563.37,1736.27L1563.37,1769.07L1601.63,1769.07L1601.63,1771.9Z" style="fill:white;fill-rule:nonzero;"/>
                <path d="M1564.49,1805.8L1606.98,1805.8C1607.59,1805.8 1608.1,1806.3 1608.1,1806.91L1608.1,1809.75C1608.1,1810.36 1607.59,1810.86 1606.98,1810.86L1560.54,1810.86C1559.92,1810.86 1559.42,1810.36 1559.42,1809.75L1559.42,1733.43C1559.42,1732.82 1559.92,1732.32 1560.54,1732.32L1606.98,1732.32C1607.59,1732.32 1608.1,1732.82 1608.1,1733.43L1608.1,1736.27C1608.1,1736.88 1607.59,1737.38 1606.98,1737.38L1564.49,1737.38L1564.49,1767.96L1601.63,1767.96C1602.25,1767.96 1602.75,1768.46 1602.75,1769.07L1602.75,1771.9C1602.75,1772.52 1602.25,1773.02 1601.63,1773.02L1564.49,1773.02L1564.49,1805.8ZM1605.86,1735.15L1605.86,1734.55L1561.66,1734.55L1561.66,1808.63L1605.86,1808.63L1605.86,1808.03L1563.37,1808.03C1562.75,1808.03 1562.25,1807.53 1562.25,1806.91L1562.25,1771.9C1562.25,1771.29 1562.75,1770.79 1563.37,1770.79L1600.51,1770.79L1600.51,1770.19L1563.37,1770.19C1562.75,1770.19 1562.25,1769.69 1562.25,1769.07L1562.25,1736.27C1562.25,1735.65 1562.75,1735.15 1563.37,1735.15L1605.86,1735.15Z" style="fill:white;"/>
                <path d="M1686.67,1791.45C1686.67,1788.2 1685.91,1785.45 1684.39,1783.2C1682.88,1780.94 1680.48,1778.95 1677.22,1777.22C1673.95,1775.49 1669.01,1773.72 1662.41,1771.9C1655.81,1770.09 1650.85,1768.25 1647.55,1766.4C1644.25,1764.55 1641.83,1762.4 1640.29,1759.95C1638.75,1757.51 1637.99,1754.54 1637.99,1751.04C1637.99,1745.49 1640.33,1740.99 1645.01,1737.55C1649.69,1734.11 1655.79,1732.39 1663.3,1732.39C1668.19,1732.39 1672.59,1733.34 1676.48,1735.24C1680.38,1737.15 1683.39,1739.82 1685.52,1743.26C1687.65,1746.7 1688.72,1750.59 1688.72,1754.92L1685.89,1754.92C1685.89,1749.23 1683.79,1744.52 1679.6,1740.8C1675.41,1737.08 1669.97,1735.22 1663.3,1735.22C1656.59,1735.22 1651.17,1736.71 1647.03,1739.7C1642.89,1742.68 1640.82,1746.43 1640.82,1750.94C1640.82,1755.52 1642.62,1759.2 1646.21,1762C1649.81,1764.79 1655.75,1767.27 1664.03,1769.41C1672.31,1771.56 1678.38,1774.05 1682.22,1776.88C1687.11,1780.48 1689.56,1785.3 1689.56,1791.35C1689.56,1795.19 1688.47,1798.59 1686.31,1801.54C1684.14,1804.5 1681.07,1806.78 1677.08,1808.38C1673.1,1809.99 1668.63,1810.79 1663.67,1810.79C1658.15,1810.79 1653.18,1809.88 1648.78,1808.04C1644.38,1806.21 1641.07,1803.6 1638.85,1800.21C1636.63,1796.82 1635.52,1792.82 1635.52,1788.2L1638.35,1788.2C1638.35,1794.46 1640.69,1799.32 1645.38,1802.77C1650.06,1806.23 1656.15,1807.96 1663.67,1807.96C1670.34,1807.96 1675.84,1806.43 1680.18,1803.38C1684.51,1800.32 1686.67,1796.35 1686.67,1791.45Z" style="fill:white;fill-rule:nonzero;"/>
                <path d="M1685.56,1791.45C1685.56,1795.97 1683.54,1799.64 1679.53,1802.46C1675.37,1805.4 1670.08,1806.85 1663.67,1806.85C1656.43,1806.85 1650.55,1805.21 1646.04,1801.88C1641.65,1798.63 1639.47,1794.07 1639.47,1788.2C1639.47,1787.59 1638.97,1787.09 1638.35,1787.09L1635.52,1787.09C1634.9,1787.09 1634.4,1787.59 1634.4,1788.2C1634.4,1793.05 1635.58,1797.26 1637.91,1800.82C1640.25,1804.38 1643.72,1807.14 1648.35,1809.07C1652.88,1810.96 1657.99,1811.91 1663.67,1811.91C1668.78,1811.91 1673.39,1811.08 1677.5,1809.42C1681.7,1807.73 1684.93,1805.31 1687.21,1802.2C1689.52,1799.06 1690.67,1795.44 1690.67,1791.35C1690.67,1784.93 1688.08,1779.81 1682.88,1775.98C1678.96,1773.09 1672.77,1770.53 1664.31,1768.33C1656.23,1766.23 1650.41,1763.85 1646.9,1761.12C1643.59,1758.54 1641.93,1755.15 1641.93,1750.94C1641.93,1746.79 1643.87,1743.36 1647.68,1740.6C1651.65,1737.74 1656.86,1736.33 1663.3,1736.33C1669.67,1736.33 1674.86,1738.08 1678.86,1741.63C1682.8,1745.13 1684.77,1749.57 1684.77,1754.92C1684.77,1755.54 1685.27,1756.04 1685.89,1756.04L1688.72,1756.04C1689.34,1756.04 1689.84,1755.54 1689.84,1754.92C1689.84,1750.37 1688.71,1746.29 1686.47,1742.67C1684.23,1739.06 1681.07,1736.24 1676.97,1734.24C1672.93,1732.26 1668.37,1731.27 1663.3,1731.27C1655.51,1731.27 1649.2,1733.08 1644.35,1736.65C1639.35,1740.32 1636.87,1745.12 1636.87,1751.04C1636.87,1754.77 1637.7,1757.94 1639.35,1760.55C1640.97,1763.13 1643.51,1765.42 1647,1767.38C1650.36,1769.26 1655.4,1771.13 1662.11,1772.98C1668.61,1774.77 1673.48,1776.51 1676.69,1778.21C1679.77,1779.84 1682.04,1781.7 1683.47,1783.82C1684.87,1785.9 1685.56,1788.45 1685.56,1791.45ZM1687.58,1753.81C1687.41,1750.14 1686.41,1746.82 1684.57,1743.85C1682.55,1740.59 1679.69,1738.05 1675.99,1736.25C1672.24,1734.41 1668.01,1733.5 1663.3,1733.5C1656.06,1733.5 1650.18,1735.13 1645.67,1738.45C1641.3,1741.66 1639.1,1745.86 1639.1,1751.04C1639.1,1754.3 1639.8,1757.08 1641.24,1759.36C1642.69,1761.67 1644.98,1763.68 1648.1,1765.43C1651.34,1767.25 1656.21,1769.04 1662.7,1770.83C1669.41,1772.67 1674.42,1774.48 1677.74,1776.24C1681.19,1778.07 1683.71,1780.19 1685.32,1782.57C1686.96,1785 1687.79,1787.96 1687.79,1791.45C1687.79,1796.72 1685.48,1801 1680.82,1804.29C1676.32,1807.47 1670.6,1809.08 1663.67,1809.08C1655.88,1809.08 1649.57,1807.26 1644.71,1803.67C1640.02,1800.21 1637.53,1795.43 1637.26,1789.32L1636.66,1789.32C1636.83,1793.23 1637.86,1796.65 1639.79,1799.59C1641.89,1802.81 1645.04,1805.27 1649.21,1807.01C1653.49,1808.79 1658.31,1809.67 1663.67,1809.67C1668.47,1809.67 1672.81,1808.9 1676.66,1807.35C1680.44,1805.82 1683.36,1803.68 1685.41,1800.88C1687.43,1798.12 1688.44,1794.94 1688.44,1791.35C1688.44,1785.68 1686.14,1781.16 1681.56,1777.78C1677.8,1775.01 1671.86,1772.6 1663.75,1770.5C1655.28,1768.3 1649.21,1765.74 1645.53,1762.88C1641.64,1759.86 1639.7,1755.88 1639.7,1750.94C1639.7,1746.08 1641.9,1742.02 1646.37,1738.79C1650.68,1735.68 1656.32,1734.1 1663.3,1734.1C1670.28,1734.1 1675.96,1736.07 1680.34,1739.96C1684.51,1743.66 1686.72,1748.27 1686.98,1753.81L1687.58,1753.81Z" style="fill:white;"/>
                <path d="M1763.96,1786.95L1726.59,1786.95L1718.1,1809.75L1715.01,1809.75L1743.57,1733.43L1747.03,1733.43L1775.6,1809.75L1772.51,1809.75L1763.96,1786.95ZM1727.64,1784.12L1762.91,1784.12L1745.3,1736.84L1727.64,1784.12Z" style="fill:white;fill-rule:nonzero;"/>
                <path d="M1727.37,1788.06L1719.15,1810.13C1718.99,1810.57 1718.57,1810.86 1718.1,1810.86L1715.01,1810.86C1714.64,1810.86 1714.3,1810.68 1714.09,1810.38C1713.88,1810.08 1713.84,1809.7 1713.96,1809.35L1742.53,1733.04C1742.69,1732.61 1743.11,1732.32 1743.57,1732.32L1747.03,1732.32C1747.5,1732.32 1747.92,1732.61 1748.08,1733.04L1776.64,1809.35C1776.77,1809.7 1776.73,1810.08 1776.52,1810.38C1776.31,1810.68 1775.96,1810.86 1775.6,1810.86L1772.51,1810.86C1772.04,1810.86 1771.62,1810.57 1771.46,1810.14L1763.19,1788.06L1727.37,1788.06ZM1773.28,1808.63L1773.99,1808.63L1746.26,1734.55L1744.35,1734.55L1716.62,1808.63L1717.33,1808.63L1725.55,1786.56C1725.71,1786.12 1726.13,1785.83 1726.59,1785.83L1763.96,1785.83C1764.43,1785.83 1764.85,1786.12 1765.01,1786.55L1773.28,1808.63ZM1726.59,1783.72C1726.47,1784.07 1726.51,1784.45 1726.72,1784.75C1726.93,1785.05 1727.28,1785.23 1727.64,1785.23L1762.91,1785.23C1763.28,1785.23 1763.62,1785.05 1763.83,1784.75C1764.04,1784.45 1764.09,1784.07 1763.96,1783.73L1746.35,1736.45C1746.19,1736.01 1745.77,1735.72 1745.3,1735.72C1744.84,1735.72 1744.42,1736.01 1744.26,1736.45L1726.59,1783.72ZM1729.25,1783L1761.3,1783L1745.3,1740.04L1729.25,1783Z" style="fill:white;"/>
                <path d="M1836.22,1777.09L1809.75,1777.09L1809.75,1809.75L1806.92,1809.75L1806.92,1733.43L1831.24,1733.43C1838.89,1733.43 1844.98,1735.41 1849.5,1739.36C1854.03,1743.31 1856.29,1748.67 1856.29,1755.45C1856.29,1760.65 1854.67,1765.2 1851.44,1769.1C1848.21,1773 1844.1,1775.42 1839.1,1776.36L1859.49,1809.01L1859.49,1809.75L1856.5,1809.75L1836.22,1777.09ZM1809.75,1774.26L1833.81,1774.26C1839.68,1774.26 1844.42,1772.48 1848.04,1768.92C1851.65,1765.35 1853.46,1760.86 1853.46,1755.45C1853.46,1749.51 1851.46,1744.83 1847.46,1741.4C1843.46,1737.98 1837.98,1736.27 1831.03,1736.27L1809.75,1736.27L1809.75,1774.26Z" style="fill:white;fill-rule:nonzero;"/>
                <path d="M1810.87,1778.21L1810.87,1809.75C1810.87,1810.36 1810.37,1810.86 1809.75,1810.86L1806.92,1810.86C1806.3,1810.86 1805.8,1810.36 1805.8,1809.75L1805.8,1733.43C1805.8,1732.82 1806.3,1732.32 1806.92,1732.32L1831.24,1732.32C1839.2,1732.32 1845.53,1734.4 1850.24,1738.51C1855,1742.67 1857.41,1748.31 1857.41,1755.45C1857.41,1760.93 1855.7,1765.71 1852.3,1769.81C1849.25,1773.5 1845.44,1775.93 1840.88,1777.11L1860.44,1808.42C1860.55,1808.6 1860.61,1808.8 1860.61,1809.01L1860.61,1809.75C1860.61,1810.36 1860.11,1810.86 1859.49,1810.86L1856.5,1810.86C1856.11,1810.86 1855.76,1810.66 1855.55,1810.34L1835.6,1778.21L1810.87,1778.21ZM1808.04,1734.55L1808.04,1808.63L1808.63,1808.63L1808.63,1777.09C1808.63,1776.48 1809.13,1775.98 1809.75,1775.98L1836.22,1775.98C1836.6,1775.98 1836.96,1776.17 1837.17,1776.5L1857.12,1808.63L1857.93,1808.63L1838.15,1776.95C1837.96,1776.64 1837.93,1776.25 1838.08,1775.91C1838.23,1775.57 1838.53,1775.33 1838.89,1775.26C1843.62,1774.37 1847.52,1772.08 1850.58,1768.39C1853.64,1764.69 1855.17,1760.38 1855.17,1755.45C1855.17,1749.03 1853.05,1743.94 1848.77,1740.2C1844.43,1736.41 1838.58,1734.55 1831.24,1734.55L1808.04,1734.55ZM1808.63,1774.26C1808.63,1774.88 1809.13,1775.38 1809.75,1775.38L1833.81,1775.38C1840,1775.38 1845,1773.48 1848.82,1769.71C1852.65,1765.94 1854.58,1761.18 1854.58,1755.45C1854.58,1749.14 1852.43,1744.18 1848.19,1740.55C1844.01,1736.97 1838.3,1735.15 1831.03,1735.15C1831.03,1735.15 1809.75,1735.15 1809.75,1735.15C1809.13,1735.15 1808.63,1735.65 1808.63,1736.27L1808.63,1774.26ZM1810.87,1773.14L1833.81,1773.14C1839.35,1773.14 1843.84,1771.49 1847.25,1768.12C1850.65,1764.77 1852.34,1760.54 1852.34,1755.45C1852.34,1749.87 1850.49,1745.47 1846.73,1742.25C1842.91,1738.98 1837.67,1737.38 1831.03,1737.38L1810.87,1737.38L1810.87,1773.14Z" style="fill:white;"/>
                <path d="M1925.77,1777.09L1899.3,1777.09L1899.3,1809.75L1896.47,1809.75L1896.47,1733.43L1920.79,1733.43C1928.44,1733.43 1934.53,1735.41 1939.06,1739.36C1943.58,1743.31 1945.84,1748.67 1945.84,1755.45C1945.84,1760.65 1944.23,1765.2 1941,1769.1C1937.76,1773 1933.65,1775.42 1928.65,1776.36L1949.04,1809.01L1949.04,1809.75L1946.05,1809.75L1925.77,1777.09ZM1899.3,1774.26L1923.36,1774.26C1929.23,1774.26 1933.97,1772.48 1937.59,1768.92C1941.2,1765.35 1943.01,1760.86 1943.01,1755.45C1943.01,1749.51 1941.01,1744.83 1937.01,1741.4C1933.01,1737.98 1927.53,1736.27 1920.58,1736.27L1899.3,1736.27L1899.3,1774.26Z" style="fill:white;fill-rule:nonzero;"/>
                <path d="M1900.42,1778.21L1900.42,1809.75C1900.42,1810.36 1899.92,1810.86 1899.3,1810.86L1896.47,1810.86C1895.85,1810.86 1895.35,1810.36 1895.35,1809.75L1895.35,1733.43C1895.35,1732.82 1895.85,1732.32 1896.47,1732.32L1920.79,1732.32C1928.76,1732.32 1935.08,1734.4 1939.79,1738.51C1944.56,1742.67 1946.96,1748.31 1946.96,1755.45C1946.96,1760.93 1945.26,1765.71 1941.86,1769.81C1938.8,1773.5 1934.99,1775.93 1930.44,1777.11L1949.99,1808.42C1950.1,1808.6 1950.16,1808.8 1950.16,1809.01L1950.16,1809.75C1950.16,1810.36 1949.66,1810.86 1949.04,1810.86L1946.05,1810.86C1945.67,1810.86 1945.31,1810.66 1945.1,1810.34L1925.15,1778.21L1900.42,1778.21ZM1897.59,1734.55L1897.59,1808.63L1898.18,1808.63L1898.18,1777.09C1898.18,1776.48 1898.68,1775.98 1899.3,1775.98L1925.77,1775.98C1926.16,1775.98 1926.52,1776.17 1926.72,1776.5L1946.67,1808.63L1947.48,1808.63L1927.7,1776.95C1927.51,1776.64 1927.48,1776.25 1927.63,1775.91C1927.78,1775.57 1928.08,1775.33 1928.44,1775.26C1933.18,1774.37 1937.07,1772.08 1940.13,1768.39C1943.2,1764.69 1944.73,1760.38 1944.73,1755.45C1944.73,1749.03 1942.61,1743.94 1938.32,1740.2C1933.98,1736.41 1928.13,1734.55 1920.79,1734.55L1897.59,1734.55ZM1898.18,1774.26C1898.18,1774.88 1898.68,1775.38 1899.3,1775.38L1923.36,1775.38C1929.56,1775.38 1934.56,1773.48 1938.37,1769.71C1942.2,1765.94 1944.13,1761.18 1944.13,1755.45C1944.13,1749.14 1941.98,1744.18 1937.74,1740.55C1933.56,1736.97 1927.85,1735.15 1920.58,1735.15C1920.58,1735.15 1899.3,1735.15 1899.3,1735.15C1898.68,1735.15 1898.18,1735.65 1898.18,1736.27L1898.18,1774.26ZM1900.42,1773.14L1923.36,1773.14C1928.9,1773.14 1933.39,1771.49 1936.8,1768.12C1940.2,1764.77 1941.89,1760.54 1941.89,1755.45C1941.89,1749.87 1940.04,1745.47 1936.28,1742.25C1932.46,1738.98 1927.22,1737.38 1920.58,1737.38L1900.42,1737.38L1900.42,1773.14Z" style="fill:white;"/>
                <path d="M2040.32,1777.3C2040.32,1783.91 2039.14,1789.75 2036.78,1794.83C2034.42,1799.92 2031.06,1803.85 2026.69,1806.63C2022.33,1809.4 2017.3,1810.79 2011.6,1810.79C2003,1810.79 1996.05,1807.74 1990.74,1801.62C1985.43,1795.51 1982.77,1787.26 1982.77,1776.88L1982.77,1765.88C1982.77,1759.31 1983.95,1753.47 1986.31,1748.37C1988.67,1743.27 1992.04,1739.33 1996.43,1736.55C2000.81,1733.78 2005.83,1732.39 2011.5,1732.39C2017.19,1732.39 2022.23,1733.78 2026.62,1736.55C2031,1739.33 2034.38,1743.28 2036.76,1748.4C2039.13,1753.52 2040.32,1759.34 2040.32,1765.88L2040.32,1777.3ZM2037.49,1765.77C2037.49,1756.55 2035.15,1749.15 2030.47,1743.58C2025.79,1738 2019.46,1735.22 2011.5,1735.22C2003.63,1735.22 1997.36,1737.99 1992.68,1743.52C1988,1749.06 1985.66,1756.6 1985.66,1766.14L1985.66,1777.3C1985.66,1783.38 1986.71,1788.75 1988.83,1793.42C1990.94,1798.08 1993.95,1801.67 1997.87,1804.19C2001.78,1806.7 2006.36,1807.96 2011.6,1807.96C2019.57,1807.96 2025.87,1805.18 2030.52,1799.63C2035.17,1794.07 2037.49,1786.49 2037.49,1776.88L2037.49,1765.77Z" style="fill:white;fill-rule:nonzero;"/>
                <path d="M2041.44,1777.3L2041.44,1765.88C2041.44,1759.17 2040.21,1753.18 2037.77,1747.93C2035.3,1742.6 2031.78,1738.5 2027.21,1735.61C2022.65,1732.72 2017.42,1731.27 2011.5,1731.27C2005.61,1731.27 2000.39,1732.72 1995.83,1735.61C1991.27,1738.5 1987.75,1742.59 1985.3,1747.9C1982.87,1753.14 1981.65,1759.13 1981.65,1765.88C1981.65,1765.88 1981.65,1776.88 1981.65,1776.88C1981.65,1787.57 1984.42,1796.06 1989.9,1802.35C1995.42,1808.72 2002.65,1811.91 2011.6,1811.91C2017.52,1811.91 2022.75,1810.46 2027.29,1807.57C2031.84,1804.68 2035.34,1800.59 2037.8,1795.3C2040.22,1790.08 2041.44,1784.08 2041.44,1777.3ZM2039.2,1777.3C2039.2,1783.73 2038.06,1789.42 2035.77,1794.36C2033.51,1799.24 2030.28,1803.02 2026.09,1805.68C2021.9,1808.35 2017.07,1809.67 2011.6,1809.67C2003.35,1809.67 1996.68,1806.75 1991.58,1800.89C1986.43,1794.96 1983.89,1786.95 1983.89,1776.88L1983.89,1765.88C1983.89,1759.49 1985.03,1753.81 1987.33,1748.84C1989.59,1743.95 1992.82,1740.16 1997.03,1737.5C2001.24,1734.83 2006.06,1733.5 2011.5,1733.5C2016.96,1733.5 2021.81,1734.83 2026.02,1737.5C2030.23,1740.16 2033.46,1743.96 2035.74,1748.87C2038.05,1753.85 2039.2,1759.52 2039.2,1765.88C2039.2,1765.88 2039.2,1777.3 2039.2,1777.3ZM2038.61,1765.77C2038.61,1756.25 2036.16,1748.61 2031.32,1742.86C2026.43,1737.03 2019.82,1734.1 2011.5,1734.1C2003.27,1734.1 1996.72,1737.01 1991.83,1742.8C1986.99,1748.52 1984.54,1756.29 1984.54,1766.14L1984.54,1777.3C1984.54,1783.56 1985.63,1789.08 1987.81,1793.88C1990.02,1798.76 1993.17,1802.5 1997.26,1805.13C2001.35,1807.76 2006.13,1809.08 2011.6,1809.08C2019.93,1809.08 2026.52,1806.16 2031.38,1800.35C2036.17,1794.61 2038.61,1786.8 2038.61,1776.88L2038.61,1765.77ZM2036.37,1765.77L2036.37,1776.88C2036.37,1786.18 2034.16,1793.53 2029.66,1798.91C2025.23,1804.21 2019.2,1806.85 2011.6,1806.85C2006.59,1806.85 2002.21,1805.65 1998.47,1803.25C1994.74,1800.85 1991.86,1797.41 1989.85,1792.96C1987.79,1788.43 1986.77,1783.21 1986.77,1777.3C1986.77,1777.3 1986.77,1766.14 1986.77,1766.14C1986.77,1756.91 1989,1749.6 1993.53,1744.25C1998,1738.96 2003.99,1736.33 2011.5,1736.33C2019.1,1736.33 2025.14,1738.98 2029.61,1744.3C2034.14,1749.68 2036.37,1756.85 2036.37,1765.77Z" style="fill:white;"/>
                <path d="M2079.98,1806.91L2119.13,1806.91L2119.13,1809.75L2077.09,1809.75L2077.09,1733.43L2079.98,1733.43L2079.98,1806.91Z" style="fill:white;fill-rule:nonzero;"/>
                <path d="M2081.1,1805.8L2119.13,1805.8C2119.74,1805.8 2120.25,1806.3 2120.25,1806.91L2120.25,1809.75C2120.25,1810.36 2119.74,1810.86 2119.13,1810.86L2077.09,1810.86C2076.48,1810.86 2075.98,1810.36 2075.98,1809.75L2075.98,1733.43C2075.98,1732.82 2076.48,1732.32 2077.09,1732.32L2079.98,1732.32C2080.59,1732.32 2081.1,1732.82 2081.1,1733.43L2081.1,1805.8ZM2078.86,1734.55L2078.21,1734.55L2078.21,1808.63L2118.01,1808.63L2118.01,1808.03L2079.98,1808.03C2079.36,1808.03 2078.86,1807.53 2078.86,1806.91L2078.86,1734.55Z" style="fill:white;"/>
                <path d="M2154.7,1806.91L2193.85,1806.91L2193.85,1809.75L2151.81,1809.75L2151.81,1733.43L2154.7,1733.43L2154.7,1806.91Z" style="fill:white;fill-rule:nonzero;"/>
                <path d="M2155.81,1805.8L2193.85,1805.8C2194.46,1805.8 2194.97,1806.3 2194.97,1806.91L2194.97,1809.75C2194.97,1810.36 2194.46,1810.86 2193.85,1810.86L2151.81,1810.86C2151.2,1810.86 2150.7,1810.36 2150.7,1809.75L2150.7,1733.43C2150.7,1732.82 2151.2,1732.32 2151.81,1732.32L2154.7,1732.32C2155.31,1732.32 2155.81,1732.82 2155.81,1733.43L2155.81,1805.8ZM2153.58,1734.55L2152.93,1734.55L2152.93,1808.63L2192.73,1808.63L2192.73,1808.03L2154.7,1808.03C2154.08,1808.03 2153.58,1807.53 2153.58,1806.91L2153.58,1734.55Z" style="fill:white;"/>
                <path d="M2267.73,1786.95L2230.36,1786.95L2221.87,1809.75L2218.78,1809.75L2247.34,1733.43L2250.8,1733.43L2279.36,1809.75L2276.27,1809.75L2267.73,1786.95ZM2231.41,1784.12L2266.68,1784.12L2249.07,1736.84L2231.41,1784.12Z" style="fill:white;fill-rule:nonzero;"/>
                <path d="M2231.14,1788.06L2222.91,1810.13C2222.75,1810.57 2222.34,1810.86 2221.87,1810.86L2218.78,1810.86C2218.41,1810.86 2218.07,1810.68 2217.86,1810.38C2217.65,1810.08 2217.6,1809.7 2217.73,1809.35L2246.29,1733.04C2246.46,1732.61 2246.87,1732.32 2247.34,1732.32L2250.8,1732.32C2251.26,1732.32 2251.68,1732.61 2251.85,1733.04L2280.41,1809.35C2280.54,1809.7 2280.49,1810.08 2280.28,1810.38C2280.07,1810.68 2279.73,1810.86 2279.36,1810.86L2276.27,1810.86C2275.8,1810.86 2275.39,1810.57 2275.22,1810.14L2266.95,1788.06L2231.14,1788.06ZM2277.05,1808.63L2277.75,1808.63L2250.02,1734.55L2248.12,1734.55L2220.39,1808.63L2221.09,1808.63L2229.31,1786.56C2229.47,1786.12 2229.89,1785.83 2230.36,1785.83L2267.73,1785.83C2268.19,1785.83 2268.61,1786.12 2268.77,1786.55L2277.05,1808.63ZM2230.36,1783.72C2230.23,1784.07 2230.28,1784.45 2230.49,1784.75C2230.7,1785.05 2231.04,1785.23 2231.41,1785.23L2266.68,1785.23C2267.05,1785.23 2267.39,1785.05 2267.6,1784.75C2267.81,1784.45 2267.85,1784.07 2267.73,1783.73L2250.12,1736.45C2249.95,1736.01 2249.54,1735.72 2249.07,1735.72C2248.6,1735.72 2248.18,1736.01 2248.02,1736.45L2230.36,1783.72ZM2233.02,1783L2265.07,1783L2249.07,1740.04L2233.02,1783Z" style="fill:white;"/>
                <path d="M2365.93,1809.75L2363.1,1809.75L2313.83,1738.26L2313.83,1809.75L2310.95,1809.75L2310.95,1733.43L2313.83,1733.43L2363.1,1804.77L2363.1,1733.43L2365.93,1733.43L2365.93,1809.75Z" style="fill:white;fill-rule:nonzero;"/>
                <path d="M2314.95,1741.85L2314.95,1809.75C2314.95,1810.36 2314.45,1810.86 2313.83,1810.86L2310.95,1810.86C2310.33,1810.86 2309.83,1810.36 2309.83,1809.75L2309.83,1733.43C2309.83,1732.82 2310.33,1732.32 2310.95,1732.32L2313.83,1732.32C2314.2,1732.32 2314.54,1732.5 2314.75,1732.8L2361.98,1801.18L2361.98,1733.43C2361.98,1732.82 2362.48,1732.32 2363.1,1732.32L2365.93,1732.32C2366.54,1732.32 2367.04,1732.82 2367.04,1733.43L2367.04,1809.75C2367.04,1810.36 2366.54,1810.86 2365.93,1810.86L2363.1,1810.86C2362.73,1810.86 2362.38,1810.68 2362.18,1810.38L2314.95,1741.85ZM2313.24,1734.55L2312.07,1734.55L2312.07,1808.63L2312.71,1808.63L2312.71,1738.26C2312.71,1737.77 2313.03,1737.33 2313.5,1737.19C2313.97,1737.04 2314.47,1737.22 2314.75,1737.62L2363.68,1808.63L2364.81,1808.63L2364.81,1734.55L2364.21,1734.55L2364.21,1804.77C2364.21,1805.26 2363.9,1805.69 2363.43,1805.83C2362.96,1805.98 2362.45,1805.8 2362.18,1805.4L2313.24,1734.55Z" style="fill:white;"/>
                <path d="M2406.21,1809.75L2406.21,1733.43L2427.33,1733.43C2433.24,1733.43 2438.58,1734.83 2443.37,1737.63C2448.16,1740.42 2451.91,1744.35 2454.64,1749.39C2457.37,1754.44 2458.76,1760.09 2458.83,1766.35L2458.83,1776.25C2458.83,1782.61 2457.5,1788.34 2454.82,1793.44C2452.15,1798.55 2448.42,1802.53 2443.63,1805.39C2438.85,1808.26 2433.5,1809.71 2427.6,1809.75L2406.21,1809.75ZM2409.04,1736.27L2409.04,1806.91L2427.33,1806.91C2432.68,1806.91 2437.54,1805.61 2441.93,1803.01C2446.32,1800.41 2449.75,1796.77 2452.23,1792.11C2454.71,1787.44 2455.97,1782.26 2456,1776.57L2456,1766.77C2456,1761.07 2454.79,1755.9 2452.36,1751.25C2449.93,1746.61 2446.54,1742.96 2442.19,1740.33C2437.84,1737.69 2433.03,1736.33 2427.75,1736.27L2409.04,1736.27Z" style="fill:white;fill-rule:nonzero;"/>
                <path d="M2405.09,1809.75C2405.09,1810.36 2405.59,1810.86 2406.21,1810.86L2427.6,1810.86C2433.72,1810.83 2439.25,1809.32 2444.21,1806.35C2449.17,1803.38 2453.04,1799.25 2455.81,1793.96C2458.57,1788.71 2459.95,1782.81 2459.95,1776.25L2459.95,1766.34C2459.88,1759.89 2458.43,1754.07 2455.62,1748.86C2452.8,1743.63 2448.9,1739.56 2443.93,1736.66C2438.98,1733.77 2433.45,1732.32 2427.33,1732.32L2406.21,1732.32C2405.59,1732.32 2405.09,1732.82 2405.09,1733.43L2405.09,1809.75ZM2407.33,1808.63L2427.59,1808.63C2433.28,1808.59 2438.44,1807.2 2443.06,1804.43C2447.67,1801.68 2451.26,1797.84 2453.83,1792.93C2456.42,1787.98 2457.71,1782.42 2457.71,1776.25C2457.71,1776.25 2457.71,1766.35 2457.71,1766.36C2457.65,1760.3 2456.3,1754.82 2453.66,1749.92C2451.03,1745.06 2447.42,1741.28 2442.81,1738.59C2438.19,1735.9 2433.03,1734.55 2427.33,1734.55L2407.33,1734.55L2407.33,1808.63ZM2409.04,1735.15C2408.42,1735.15 2407.92,1735.65 2407.92,1736.27L2407.92,1806.91C2407.92,1807.53 2408.42,1808.03 2409.04,1808.03L2427.33,1808.03C2432.89,1808.03 2437.94,1806.68 2442.5,1803.97C2447.06,1801.26 2450.64,1797.49 2453.22,1792.63C2455.78,1787.81 2457.08,1782.46 2457.12,1776.58C2457.12,1776.57 2457.12,1766.77 2457.12,1766.77C2457.12,1760.88 2455.86,1755.54 2453.35,1750.74C2450.82,1745.9 2447.3,1742.12 2442.77,1739.37C2438.25,1736.63 2433.25,1735.22 2427.77,1735.15C2427.75,1735.15 2409.04,1735.15 2409.04,1735.15ZM2410.16,1805.8L2427.33,1805.8C2432.47,1805.8 2437.15,1804.55 2441.36,1802.05C2445.57,1799.55 2448.86,1796.06 2451.24,1791.58C2453.64,1787.08 2454.85,1782.07 2454.88,1776.57C2454.88,1776.57 2454.88,1766.77 2454.88,1766.77C2454.88,1761.26 2453.72,1756.26 2451.37,1751.77C2449.04,1747.31 2445.79,1743.81 2441.61,1741.28C2437.43,1738.75 2432.81,1737.45 2427.75,1737.38L2410.16,1737.38L2410.16,1805.8Z" style="fill:white;"/>
                <path d="M2549.8,1777.3C2549.8,1783.91 2548.62,1789.75 2546.26,1794.83C2543.9,1799.92 2540.54,1803.85 2536.17,1806.63C2531.8,1809.4 2526.77,1810.79 2521.08,1810.79C2512.48,1810.79 2505.53,1807.74 2500.22,1801.62C2494.91,1795.51 2492.25,1787.26 2492.25,1776.88L2492.25,1765.88C2492.25,1759.31 2493.43,1753.47 2495.79,1748.37C2498.15,1743.27 2501.52,1739.33 2505.9,1736.55C2510.29,1733.78 2515.31,1732.39 2520.97,1732.39C2526.67,1732.39 2531.71,1733.78 2536.09,1736.55C2540.48,1739.33 2543.86,1743.28 2546.24,1748.4C2548.61,1753.52 2549.8,1759.34 2549.8,1765.88L2549.8,1777.3ZM2546.97,1765.77C2546.97,1756.55 2544.63,1749.15 2539.95,1743.58C2535.26,1738 2528.94,1735.22 2520.97,1735.22C2513.11,1735.22 2506.84,1737.99 2502.16,1743.52C2497.47,1749.06 2495.13,1756.6 2495.13,1766.14L2495.13,1777.3C2495.13,1783.38 2496.19,1788.75 2498.3,1793.42C2500.42,1798.08 2503.43,1801.67 2507.35,1804.19C2511.26,1806.7 2515.84,1807.96 2521.08,1807.96C2529.04,1807.96 2535.35,1805.18 2540,1799.63C2544.64,1794.07 2546.97,1786.49 2546.97,1776.88L2546.97,1765.77Z" style="fill:white;fill-rule:nonzero;"/>
                <path d="M2550.92,1777.3L2550.92,1765.88C2550.92,1759.17 2549.69,1753.18 2547.25,1747.93C2544.78,1742.6 2541.25,1738.5 2536.69,1735.61C2532.13,1732.72 2526.89,1731.27 2520.97,1731.27C2515.09,1731.27 2509.87,1732.72 2505.31,1735.61C2500.74,1738.5 2497.23,1742.59 2494.77,1747.9C2492.35,1753.14 2491.13,1759.13 2491.13,1765.88L2491.13,1776.88C2491.13,1787.57 2493.9,1796.06 2499.37,1802.35C2504.9,1808.72 2512.13,1811.91 2521.08,1811.91C2527,1811.91 2532.23,1810.46 2536.77,1807.57C2541.32,1804.68 2544.82,1800.59 2547.28,1795.3C2549.7,1790.08 2550.92,1784.08 2550.92,1777.3ZM2548.68,1777.3C2548.68,1783.73 2547.54,1789.42 2545.25,1794.36C2542.98,1799.24 2539.76,1803.02 2535.57,1805.68C2531.38,1808.35 2526.55,1809.67 2521.08,1809.67C2512.83,1809.67 2506.16,1806.75 2501.06,1800.89C2495.91,1794.96 2493.37,1786.95 2493.37,1776.88C2493.37,1776.88 2493.37,1765.88 2493.37,1765.88C2493.37,1759.49 2494.51,1753.81 2496.8,1748.84C2499.07,1743.95 2502.3,1740.16 2506.5,1737.5C2510.71,1734.83 2515.54,1733.5 2520.97,1733.5C2526.44,1733.5 2531.28,1734.83 2535.49,1737.5C2539.7,1740.16 2542.94,1743.96 2545.22,1748.87C2547.53,1753.85 2548.68,1759.52 2548.68,1765.88C2548.68,1765.88 2548.68,1777.3 2548.68,1777.3ZM2548.09,1765.77C2548.09,1756.25 2545.64,1748.61 2540.8,1742.86C2535.91,1737.03 2529.3,1734.1 2520.97,1734.1C2512.75,1734.1 2506.2,1737.01 2501.3,1742.8C2496.47,1748.52 2494.02,1756.29 2494.02,1766.14L2494.02,1777.3C2494.02,1783.56 2495.11,1789.08 2497.29,1793.88C2499.49,1798.76 2502.65,1802.5 2506.74,1805.13C2510.83,1807.76 2515.6,1809.08 2521.08,1809.08C2529.41,1809.08 2535.99,1806.16 2540.86,1800.35C2545.65,1794.61 2548.09,1786.8 2548.09,1776.88C2548.09,1776.88 2548.09,1765.77 2548.09,1765.77ZM2545.85,1765.77L2545.85,1776.88C2545.85,1786.18 2543.64,1793.53 2539.14,1798.91C2534.71,1804.21 2528.68,1806.85 2521.08,1806.85C2516.07,1806.85 2511.69,1805.65 2507.95,1803.25C2504.21,1800.85 2501.34,1797.41 2499.32,1792.96C2497.27,1788.43 2496.25,1783.21 2496.25,1777.3C2496.25,1777.3 2496.25,1766.14 2496.25,1766.14C2496.25,1756.91 2498.48,1749.6 2503.01,1744.25C2507.48,1738.96 2513.47,1736.33 2520.97,1736.33C2528.58,1736.33 2534.62,1738.98 2539.09,1744.3C2543.62,1749.68 2545.85,1756.85 2545.85,1765.77Z" style="fill:white;"/>
                <path d="M2578.45,1807.18C2578.45,1806.37 2578.73,1805.68 2579.29,1805.11C2579.85,1804.53 2580.53,1804.24 2581.33,1804.24C2582.14,1804.24 2582.83,1804.53 2583.4,1805.11C2583.98,1805.68 2584.27,1806.37 2584.27,1807.18C2584.27,1807.98 2583.98,1808.66 2583.4,1809.22C2582.83,1809.78 2582.14,1810.06 2581.33,1810.06C2580.53,1810.06 2579.85,1809.78 2579.29,1809.22C2578.73,1808.66 2578.45,1807.98 2578.45,1807.18Z" style="fill:white;fill-rule:nonzero;"/>
                <path d="M2577.33,1807.18C2577.33,1808.29 2577.72,1809.24 2578.5,1810.01C2579.27,1810.79 2580.22,1811.18 2581.33,1811.18C2582.44,1811.18 2583.39,1810.79 2584.18,1810.02C2584.98,1809.25 2585.38,1808.3 2585.38,1807.18C2585.38,1806.07 2584.99,1805.11 2584.19,1804.32C2583.39,1803.52 2582.44,1803.12 2581.33,1803.12C2580.21,1803.12 2579.26,1803.53 2578.48,1804.33C2577.72,1805.12 2577.33,1806.07 2577.33,1807.18ZM2579.57,1807.18C2579.57,1806.67 2579.74,1806.24 2580.09,1805.88C2580.43,1805.53 2580.84,1805.36 2581.33,1805.36C2581.83,1805.36 2582.25,1805.54 2582.61,1805.9C2582.97,1806.25 2583.15,1806.68 2583.15,1807.18C2583.15,1807.66 2582.97,1808.08 2582.62,1808.42C2582.26,1808.77 2581.83,1808.94 2581.33,1808.94C2580.84,1808.94 2580.42,1808.77 2580.08,1808.43C2579.74,1808.09 2579.57,1807.67 2579.57,1807.18Z" style="fill:white;"/>
                <rect x="2625.65" y="1733.43" width="2.83" height="76.31" style="fill:white;fill-rule:nonzero;"/>
                <path d="M2628.48,1810.86C2629.1,1810.86 2629.6,1810.36 2629.6,1809.75L2629.6,1733.43C2629.6,1732.82 2629.1,1732.32 2628.48,1732.32L2625.65,1732.32C2625.03,1732.32 2624.53,1732.82 2624.53,1733.43L2624.53,1809.75C2624.53,1810.36 2625.03,1810.86 2625.65,1810.86L2628.48,1810.86ZM2626.77,1734.55L2626.77,1808.63L2627.36,1808.63L2627.36,1734.55L2626.77,1734.55Z" style="fill:white;"/>
                <path d="M2670.86,1809.75L2670.86,1733.43L2691.99,1733.43C2697.89,1733.43 2703.24,1734.83 2708.02,1737.63C2712.81,1740.42 2716.57,1744.35 2719.29,1749.39C2722.02,1754.44 2723.41,1760.09 2723.48,1766.35L2723.48,1776.25C2723.48,1782.61 2722.15,1788.34 2719.47,1793.44C2716.8,1798.55 2713.07,1802.53 2708.28,1805.39C2703.5,1808.26 2698.15,1809.71 2692.25,1809.75L2670.86,1809.75ZM2673.69,1736.27L2673.69,1806.91L2691.99,1806.91C2697.33,1806.91 2702.2,1805.61 2706.58,1803.01C2710.97,1800.41 2714.4,1796.77 2716.88,1792.11C2719.36,1787.44 2720.62,1782.26 2720.65,1776.57L2720.65,1766.77C2720.65,1761.07 2719.44,1755.9 2717.01,1751.25C2714.58,1746.61 2711.19,1742.96 2706.84,1740.33C2702.49,1737.69 2697.68,1736.33 2692.4,1736.27L2673.69,1736.27Z" style="fill:white;fill-rule:nonzero;"/>
                <path d="M2669.74,1809.75C2669.74,1810.36 2670.25,1810.86 2670.86,1810.86L2692.25,1810.86C2698.37,1810.83 2703.9,1809.32 2708.86,1806.35C2713.82,1803.38 2717.69,1799.25 2720.47,1793.96C2723.22,1788.71 2724.6,1782.81 2724.6,1776.25L2724.6,1766.34C2724.53,1759.89 2723.08,1754.07 2720.28,1748.86C2717.45,1743.63 2713.55,1739.56 2708.59,1736.66C2703.63,1733.77 2698.1,1732.32 2691.99,1732.32L2670.86,1732.32C2670.25,1732.32 2669.74,1732.82 2669.74,1733.43L2669.74,1809.75ZM2671.98,1808.63L2692.24,1808.63C2697.94,1808.59 2703.09,1807.2 2707.71,1804.43C2712.32,1801.68 2715.91,1797.84 2718.48,1792.93C2721.08,1787.98 2722.37,1782.42 2722.37,1776.25C2722.37,1776.25 2722.37,1766.35 2722.37,1766.36C2722.3,1760.3 2720.95,1754.82 2718.31,1749.92C2715.68,1745.06 2712.07,1741.28 2707.46,1738.59C2702.84,1735.9 2697.68,1734.55 2691.99,1734.55L2671.98,1734.55L2671.98,1808.63ZM2673.69,1735.15C2673.08,1735.15 2672.58,1735.65 2672.58,1736.27L2672.58,1806.91C2672.58,1807.53 2673.08,1808.03 2673.69,1808.03L2691.99,1808.03C2697.54,1808.03 2702.6,1806.68 2707.15,1803.97C2711.71,1801.26 2715.29,1797.49 2717.87,1792.63C2720.43,1787.81 2721.74,1782.46 2721.77,1776.58C2721.77,1776.57 2721.77,1766.77 2721.77,1766.77C2721.77,1760.88 2720.51,1755.54 2718,1750.74C2715.48,1745.9 2711.95,1742.12 2707.42,1739.37C2702.9,1736.63 2697.9,1735.22 2692.42,1735.15C2692.4,1735.15 2673.69,1735.15 2673.69,1735.15ZM2674.81,1805.8L2691.99,1805.8C2697.12,1805.8 2701.8,1804.55 2706.01,1802.05C2710.22,1799.55 2713.51,1796.06 2715.89,1791.58C2718.29,1787.08 2719.5,1782.07 2719.54,1776.57C2719.54,1776.57 2719.54,1766.77 2719.54,1766.77C2719.54,1761.26 2718.37,1756.26 2716.02,1751.77C2713.69,1747.31 2710.44,1743.81 2706.26,1741.28C2702.08,1738.75 2697.46,1737.45 2692.4,1737.38L2674.81,1737.38L2674.81,1805.8Z" style="fill:white;"/>
                <path d="M2801.51,1771.9L2763.24,1771.9L2763.24,1806.91L2806.85,1806.91L2806.85,1809.75L2760.41,1809.75L2760.41,1733.43L2806.85,1733.43L2806.85,1736.27L2763.24,1736.27L2763.24,1769.07L2801.51,1769.07L2801.51,1771.9Z" style="fill:white;fill-rule:nonzero;"/>
                <path d="M2764.36,1805.8L2806.85,1805.8C2807.47,1805.8 2807.97,1806.3 2807.97,1806.91L2807.97,1809.75C2807.97,1810.36 2807.47,1810.86 2806.85,1810.86L2760.41,1810.86C2759.8,1810.86 2759.3,1810.36 2759.3,1809.75L2759.3,1733.43C2759.3,1732.82 2759.8,1732.32 2760.41,1732.32L2806.85,1732.32C2807.47,1732.32 2807.97,1732.82 2807.97,1733.43L2807.97,1736.27C2807.97,1736.88 2807.47,1737.38 2806.85,1737.38L2764.36,1737.38L2764.36,1767.96L2801.51,1767.96C2802.12,1767.96 2802.62,1768.46 2802.62,1769.07L2802.62,1771.9C2802.62,1772.52 2802.12,1773.02 2801.51,1773.02L2764.36,1773.02L2764.36,1805.8ZM2805.73,1735.15L2805.73,1734.55L2761.53,1734.55L2761.53,1808.63L2805.73,1808.63L2805.73,1808.03L2763.24,1808.03C2762.63,1808.03 2762.13,1807.53 2762.13,1806.91L2762.13,1771.9C2762.13,1771.29 2762.63,1770.79 2763.24,1770.79L2800.39,1770.79L2800.39,1770.19L2763.24,1770.19C2762.63,1770.19 2762.13,1769.69 2762.13,1769.07L2762.13,1736.27C2762.13,1735.65 2762.63,1735.15 2763.24,1735.15L2805.73,1735.15Z" style="fill:white;"/>
                <path d="M2881.05,1786.95L2843.68,1786.95L2835.19,1809.75L2832.09,1809.75L2860.66,1733.43L2864.12,1733.43L2892.68,1809.75L2889.59,1809.75L2881.05,1786.95ZM2844.72,1784.12L2880,1784.12L2862.39,1736.84L2844.72,1784.12Z" style="fill:white;fill-rule:nonzero;"/>
                <path d="M2844.45,1788.06L2836.23,1810.13C2836.07,1810.57 2835.65,1810.86 2835.19,1810.86L2832.09,1810.86C2831.73,1810.86 2831.38,1810.68 2831.18,1810.38C2830.97,1810.08 2830.92,1809.7 2831.05,1809.35L2859.61,1733.04C2859.77,1732.61 2860.19,1732.32 2860.66,1732.32L2864.12,1732.32C2864.58,1732.32 2865,1732.61 2865.16,1733.04L2893.73,1809.35C2893.86,1809.7 2893.81,1810.08 2893.6,1810.38C2893.39,1810.68 2893.05,1810.86 2892.68,1810.86L2889.59,1810.86C2889.12,1810.86 2888.7,1810.57 2888.54,1810.14L2880.27,1788.06L2844.45,1788.06ZM2890.36,1808.63L2891.07,1808.63L2863.34,1734.55L2861.43,1734.55L2833.71,1808.63L2834.41,1808.63L2842.63,1786.56C2842.79,1786.12 2843.21,1785.83 2843.68,1785.83L2881.05,1785.83C2881.51,1785.83 2881.93,1786.12 2882.09,1786.55L2890.36,1808.63ZM2843.68,1783.72C2843.55,1784.07 2843.6,1784.45 2843.81,1784.75C2844.01,1785.05 2844.36,1785.23 2844.72,1785.23L2880,1785.23C2880.36,1785.23 2880.71,1785.05 2880.92,1784.75C2881.12,1784.45 2881.17,1784.07 2881.05,1783.73L2863.43,1736.45C2863.27,1736.01 2862.86,1735.72 2862.39,1735.72C2861.92,1735.72 2861.5,1736.01 2861.34,1736.45L2843.68,1783.72ZM2846.34,1783L2878.39,1783L2862.39,1740.04L2846.34,1783Z" style="fill:white;"/>
                <path d="M2969.97,1791.45C2969.97,1788.2 2969.21,1785.45 2967.69,1783.2C2966.17,1780.94 2963.78,1778.95 2960.51,1777.22C2957.24,1775.49 2952.31,1773.72 2945.7,1771.9C2939.1,1770.09 2934.14,1768.25 2930.84,1766.4C2927.54,1764.55 2925.12,1762.4 2923.59,1759.95C2922.05,1757.51 2921.28,1754.54 2921.28,1751.04C2921.28,1745.49 2923.62,1740.99 2928.3,1737.55C2932.98,1734.11 2939.08,1732.39 2946.59,1732.39C2951.49,1732.39 2955.88,1733.34 2959.77,1735.24C2963.67,1737.15 2966.68,1739.82 2968.82,1743.26C2970.95,1746.7 2972.01,1750.59 2972.01,1754.92L2969.18,1754.92C2969.18,1749.23 2967.09,1744.52 2962.89,1740.8C2958.7,1737.08 2953.27,1735.22 2946.59,1735.22C2939.88,1735.22 2934.46,1736.71 2930.32,1739.7C2926.18,1742.68 2924.11,1746.43 2924.11,1750.94C2924.11,1755.52 2925.91,1759.2 2929.51,1762C2933.11,1764.79 2939.05,1767.27 2947.33,1769.41C2955.61,1771.56 2961.67,1774.05 2965.51,1776.88C2970.41,1780.48 2972.85,1785.3 2972.85,1791.35C2972.85,1795.19 2971.77,1798.59 2969.6,1801.54C2967.43,1804.5 2964.36,1806.78 2960.38,1808.38C2956.39,1809.99 2951.92,1810.79 2946.96,1810.79C2941.44,1810.79 2936.48,1809.88 2932.08,1808.04C2927.67,1806.21 2924.36,1803.6 2922.14,1800.21C2919.93,1796.82 2918.82,1792.82 2918.82,1788.2L2921.64,1788.2C2921.64,1794.46 2923.99,1799.32 2928.67,1802.77C2933.35,1806.23 2939.45,1807.96 2946.96,1807.96C2953.63,1807.96 2959.14,1806.43 2963.47,1803.38C2967.8,1800.32 2969.97,1796.35 2969.97,1791.45Z" style="fill:white;fill-rule:nonzero;"/>
                <path d="M2968.85,1791.45C2968.85,1795.97 2966.83,1799.64 2962.83,1802.46C2958.66,1805.4 2953.37,1806.85 2946.96,1806.85C2939.72,1806.85 2933.84,1805.21 2929.33,1801.88C2924.94,1798.63 2922.76,1794.07 2922.76,1788.2C2922.76,1787.59 2922.26,1787.09 2921.64,1787.09L2918.82,1787.09C2918.2,1787.09 2917.7,1787.59 2917.7,1788.2C2917.7,1793.05 2918.88,1797.26 2921.21,1800.82C2923.54,1804.38 2927.01,1807.14 2931.64,1809.07C2936.18,1810.96 2941.28,1811.91 2946.96,1811.91C2952.08,1811.91 2956.69,1811.08 2960.8,1809.42C2964.99,1807.73 2968.22,1805.31 2970.5,1802.2C2972.81,1799.06 2973.97,1795.44 2973.97,1791.35C2973.97,1784.93 2971.37,1779.81 2966.18,1775.98C2962.25,1773.09 2956.07,1770.53 2947.61,1768.33C2939.52,1766.23 2933.71,1763.85 2930.19,1761.12C2926.88,1758.54 2925.23,1755.15 2925.23,1750.94C2925.23,1746.79 2927.16,1743.36 2930.97,1740.6C2934.95,1737.74 2940.16,1736.33 2946.59,1736.33C2952.96,1736.33 2958.15,1738.08 2962.15,1741.63C2966.1,1745.13 2968.06,1749.57 2968.06,1754.92C2968.06,1755.54 2968.57,1756.04 2969.18,1756.04L2972.01,1756.04C2972.63,1756.04 2973.13,1755.54 2973.13,1754.92C2973.13,1750.37 2972.01,1746.29 2969.77,1742.67C2967.53,1739.06 2964.36,1736.24 2960.26,1734.24C2956.22,1732.26 2951.67,1731.27 2946.59,1731.27C2938.81,1731.27 2932.49,1733.08 2927.64,1736.65C2922.65,1740.32 2920.16,1745.12 2920.16,1751.04C2920.16,1754.77 2921,1757.94 2922.64,1760.55C2924.26,1763.13 2926.81,1765.42 2930.3,1767.38C2933.66,1769.26 2938.69,1771.13 2945.41,1772.98C2951.91,1774.77 2956.77,1776.51 2959.99,1778.21C2963.06,1779.84 2965.33,1781.7 2966.76,1783.82C2968.16,1785.9 2968.85,1788.45 2968.85,1791.45ZM2970.87,1753.81C2970.7,1750.14 2969.7,1746.82 2967.87,1743.85C2965.84,1740.59 2962.98,1738.05 2959.28,1736.25C2955.53,1734.41 2951.3,1733.5 2946.59,1733.5C2939.36,1733.5 2933.47,1735.13 2928.96,1738.45C2924.59,1741.66 2922.4,1745.86 2922.4,1751.04C2922.4,1754.3 2923.1,1757.08 2924.53,1759.36C2925.98,1761.67 2928.28,1763.68 2931.39,1765.43C2934.64,1767.25 2939.51,1769.04 2946,1770.83C2952.7,1772.67 2957.71,1774.48 2961.03,1776.24C2964.49,1778.07 2967.01,1780.19 2968.62,1782.57C2970.25,1785 2971.09,1787.96 2971.09,1791.45C2971.09,1796.72 2968.78,1801 2964.11,1804.29C2959.61,1807.47 2953.9,1809.08 2946.96,1809.08C2939.17,1809.08 2932.86,1807.26 2928,1803.67C2923.31,1800.21 2920.82,1795.43 2920.55,1789.32L2919.96,1789.32C2920.12,1793.23 2921.16,1796.65 2923.08,1799.59C2925.18,1802.81 2928.33,1805.27 2932.51,1807.01C2936.78,1808.79 2941.6,1809.67 2946.96,1809.67C2951.77,1809.67 2956.1,1808.9 2959.96,1807.35C2963.73,1805.82 2966.65,1803.68 2968.7,1800.88C2970.72,1798.12 2971.73,1794.94 2971.73,1791.35C2971.73,1785.68 2969.44,1781.16 2964.85,1777.78C2961.09,1775.01 2955.15,1772.6 2947.05,1770.5C2938.57,1768.3 2932.5,1765.74 2928.82,1762.88C2924.93,1759.86 2922.99,1755.88 2922.99,1750.94C2922.99,1746.08 2925.2,1742.02 2929.66,1738.79C2933.97,1735.68 2939.61,1734.1 2946.59,1734.1C2953.57,1734.1 2959.25,1736.07 2963.64,1739.96C2967.8,1743.66 2970.01,1748.27 2970.27,1753.81L2970.87,1753.81Z" style="fill:white;"/>
            </g>
            <g transform="matrix(8.94479,0,0,8.94479,-3942.64,-893.919)">
                <g transform="matrix(10.6213,0,0,10.6213,594.738,301.898)">
                    <path d="M0.044,-0.244C0.044,-0.261 0.046,-0.278 0.049,-0.296C0.053,-0.314 0.058,-0.33 0.064,-0.345C0.071,-0.36 0.079,-0.375 0.089,-0.39C0.098,-0.404 0.11,-0.417 0.123,-0.43C0.134,-0.441 0.148,-0.451 0.163,-0.462C0.178,-0.471 0.194,-0.479 0.208,-0.485C0.222,-0.491 0.239,-0.496 0.258,-0.5C0.277,-0.503 0.295,-0.505 0.311,-0.505C0.347,-0.505 0.381,-0.498 0.414,-0.485C0.428,-0.479 0.443,-0.472 0.459,-0.461C0.475,-0.451 0.489,-0.44 0.5,-0.428C0.513,-0.416 0.524,-0.402 0.534,-0.388C0.544,-0.374 0.552,-0.359 0.559,-0.343C0.565,-0.329 0.57,-0.313 0.574,-0.295C0.577,-0.279 0.579,-0.262 0.579,-0.244C0.579,-0.226 0.577,-0.209 0.574,-0.192C0.571,-0.177 0.566,-0.161 0.559,-0.143C0.551,-0.125 0.543,-0.111 0.535,-0.098C0.524,-0.084 0.513,-0.071 0.501,-0.059C0.487,-0.045 0.473,-0.034 0.459,-0.026C0.444,-0.016 0.429,-0.008 0.413,-0.001L0.413,-0.001C0.396,0.005 0.38,0.01 0.363,0.013C0.344,0.016 0.326,0.018 0.311,0.018C0.295,0.018 0.278,0.016 0.259,0.013C0.245,0.01 0.228,0.005 0.209,-0.001L0.209,-0.001C0.192,-0.008 0.176,-0.016 0.163,-0.025C0.147,-0.036 0.134,-0.047 0.123,-0.059C0.109,-0.072 0.098,-0.085 0.089,-0.099C0.079,-0.113 0.071,-0.128 0.064,-0.144C0.058,-0.158 0.052,-0.174 0.049,-0.192C0.046,-0.211 0.044,-0.229 0.044,-0.244ZM0.43,-0.243C0.43,-0.28 0.418,-0.31 0.395,-0.335C0.384,-0.347 0.371,-0.357 0.357,-0.363C0.342,-0.369 0.327,-0.373 0.312,-0.373C0.296,-0.373 0.28,-0.369 0.266,-0.363C0.252,-0.357 0.24,-0.347 0.228,-0.335C0.216,-0.322 0.207,-0.309 0.202,-0.294C0.196,-0.278 0.193,-0.261 0.193,-0.243C0.193,-0.225 0.196,-0.208 0.202,-0.193C0.208,-0.177 0.216,-0.163 0.228,-0.151C0.24,-0.139 0.252,-0.129 0.266,-0.124C0.279,-0.117 0.294,-0.114 0.312,-0.114C0.328,-0.114 0.344,-0.117 0.357,-0.124C0.371,-0.129 0.383,-0.139 0.395,-0.151C0.407,-0.163 0.415,-0.177 0.421,-0.193C0.427,-0.208 0.43,-0.224 0.43,-0.243Z" style="fill:white;fill-rule:nonzero;"/>
                </g>
                <g transform="matrix(10.6213,0,0,10.6213,600.412,301.898)">
                    <path d="M0.293,0.015L0.058,-0.46L0.044,-0.489L0.202,-0.489L0.207,-0.477L0.305,-0.251C0.306,-0.248 0.308,-0.243 0.311,-0.236L0.312,-0.233C0.313,-0.236 0.314,-0.239 0.315,-0.242L0.417,-0.477L0.422,-0.489L0.58,-0.489L0.565,-0.46L0.33,0.015L0.312,0.052L0.293,0.015Z" style="fill:white;fill-rule:nonzero;"/>
                </g>
                <g transform="matrix(10.6213,0,0,10.6213,606.086,301.898)">
                    <path d="M0.398,-0.319C0.391,-0.341 0.379,-0.356 0.362,-0.365C0.344,-0.373 0.324,-0.377 0.302,-0.377C0.273,-0.377 0.25,-0.371 0.233,-0.357L0.233,-0.357C0.221,-0.347 0.212,-0.334 0.205,-0.319L0.398,-0.319ZM0.193,-0.209C0.203,-0.144 0.242,-0.111 0.311,-0.111L0.313,-0.111C0.365,-0.112 0.404,-0.14 0.429,-0.197L0.546,-0.133C0.539,-0.12 0.532,-0.107 0.524,-0.097C0.517,-0.086 0.508,-0.075 0.498,-0.063C0.48,-0.044 0.461,-0.029 0.441,-0.018C0.401,0.006 0.354,0.018 0.3,0.018C0.222,0.018 0.16,-0.006 0.114,-0.054C0.067,-0.102 0.044,-0.165 0.044,-0.243C0.044,-0.319 0.068,-0.381 0.116,-0.431C0.164,-0.48 0.225,-0.505 0.3,-0.505C0.378,-0.505 0.439,-0.482 0.483,-0.437C0.507,-0.412 0.525,-0.383 0.535,-0.351C0.545,-0.318 0.55,-0.285 0.55,-0.249L0.55,-0.209L0.193,-0.209Z" style="fill:white;fill-rule:nonzero;"/>
                </g>
                <g transform="matrix(10.6213,0,0,10.6213,612.392,301.898)">
                    <path d="M0.187,-0.454C0.212,-0.479 0.244,-0.494 0.281,-0.497C0.285,-0.497 0.29,-0.497 0.294,-0.497C0.326,-0.497 0.358,-0.488 0.389,-0.471L0.334,-0.346C0.321,-0.356 0.31,-0.363 0.302,-0.368C0.293,-0.373 0.28,-0.375 0.263,-0.375C0.236,-0.375 0.218,-0.365 0.207,-0.345C0.199,-0.33 0.193,-0.309 0.191,-0.284C0.188,-0.26 0.187,-0.237 0.187,-0.217L0.187,0L0.044,0L0.044,-0.49L0.187,-0.49L0.187,-0.454Z" style="fill:white;fill-rule:nonzero;"/>
                </g>
                <g transform="matrix(10.6213,0,0,10.6213,616.266,301.898)">
                    <path d="M0.395,-0.348C0.387,-0.354 0.378,-0.358 0.37,-0.362C0.361,-0.366 0.351,-0.369 0.341,-0.372C0.331,-0.374 0.321,-0.375 0.31,-0.375C0.291,-0.375 0.275,-0.372 0.26,-0.366C0.246,-0.36 0.234,-0.352 0.223,-0.34L0.224,-0.34C0.212,-0.328 0.204,-0.314 0.199,-0.3C0.194,-0.284 0.191,-0.266 0.191,-0.246C0.191,-0.225 0.194,-0.207 0.199,-0.19C0.204,-0.175 0.212,-0.161 0.224,-0.15C0.234,-0.139 0.246,-0.13 0.261,-0.125C0.277,-0.119 0.294,-0.116 0.314,-0.116C0.326,-0.116 0.336,-0.117 0.346,-0.119C0.355,-0.121 0.364,-0.124 0.373,-0.128C0.375,-0.131 0.378,-0.133 0.384,-0.135C0.389,-0.138 0.393,-0.14 0.396,-0.143C0.407,-0.153 0.417,-0.162 0.426,-0.17C0.435,-0.179 0.444,-0.189 0.453,-0.202L0.453,-0.022L0.442,-0.017C0.431,-0.01 0.42,-0.005 0.411,-0.001C0.4,0.002 0.389,0.006 0.376,0.009C0.366,0.012 0.354,0.014 0.341,0.016C0.327,0.017 0.315,0.018 0.303,0.018C0.266,0.018 0.232,0.012 0.2,0C0.168,-0.011 0.141,-0.03 0.117,-0.055C0.093,-0.078 0.074,-0.107 0.062,-0.139C0.05,-0.17 0.044,-0.204 0.044,-0.243C0.044,-0.281 0.05,-0.316 0.063,-0.349C0.075,-0.38 0.094,-0.408 0.119,-0.433C0.144,-0.457 0.173,-0.475 0.206,-0.487C0.237,-0.499 0.273,-0.505 0.313,-0.505C0.327,-0.505 0.339,-0.504 0.349,-0.503C0.364,-0.501 0.375,-0.499 0.382,-0.498C0.393,-0.495 0.403,-0.492 0.414,-0.488C0.422,-0.484 0.432,-0.48 0.442,-0.475L0.453,-0.469L0.453,-0.294C0.444,-0.306 0.435,-0.316 0.427,-0.323C0.418,-0.331 0.407,-0.339 0.395,-0.348Z" style="fill:white;fill-rule:nonzero;"/>
                </g>
                <g transform="matrix(10.6213,0,0,10.6213,621.54,301.898)">
                    <path d="M0.187,-0.454C0.212,-0.479 0.244,-0.494 0.281,-0.497C0.285,-0.497 0.29,-0.497 0.294,-0.497C0.326,-0.497 0.358,-0.488 0.389,-0.471L0.334,-0.346C0.321,-0.356 0.31,-0.363 0.302,-0.368C0.293,-0.373 0.28,-0.375 0.263,-0.375C0.236,-0.375 0.218,-0.365 0.207,-0.345C0.199,-0.33 0.193,-0.309 0.191,-0.284C0.188,-0.26 0.187,-0.237 0.187,-0.217L0.187,0L0.044,0L0.044,-0.49L0.187,-0.49L0.187,-0.454Z" style="fill:white;fill-rule:nonzero;"/>
                </g>
                <g transform="matrix(10.6213,0,0,10.6213,625.254,301.898)">
                    <path d="M0.044,-0.244C0.044,-0.261 0.046,-0.278 0.049,-0.296C0.053,-0.314 0.058,-0.33 0.064,-0.345C0.071,-0.36 0.079,-0.375 0.089,-0.39C0.098,-0.404 0.11,-0.417 0.123,-0.43C0.134,-0.441 0.148,-0.451 0.163,-0.462C0.178,-0.471 0.194,-0.479 0.208,-0.485C0.222,-0.491 0.239,-0.496 0.258,-0.5C0.277,-0.503 0.295,-0.505 0.311,-0.505C0.347,-0.505 0.381,-0.498 0.414,-0.485C0.428,-0.479 0.443,-0.472 0.459,-0.461C0.475,-0.451 0.489,-0.44 0.5,-0.428C0.513,-0.416 0.524,-0.402 0.534,-0.388C0.544,-0.374 0.552,-0.359 0.559,-0.343C0.565,-0.329 0.57,-0.313 0.574,-0.295C0.577,-0.279 0.579,-0.262 0.579,-0.244C0.579,-0.226 0.577,-0.209 0.574,-0.192C0.571,-0.177 0.566,-0.161 0.559,-0.143C0.551,-0.125 0.543,-0.111 0.535,-0.098C0.524,-0.084 0.513,-0.071 0.501,-0.059C0.487,-0.045 0.473,-0.034 0.459,-0.026C0.444,-0.016 0.429,-0.008 0.413,-0.001L0.413,-0.001C0.396,0.005 0.38,0.01 0.363,0.013C0.344,0.016 0.326,0.018 0.311,0.018C0.295,0.018 0.278,0.016 0.259,0.013C0.245,0.01 0.228,0.005 0.209,-0.001L0.209,-0.001C0.192,-0.008 0.176,-0.016 0.163,-0.025C0.147,-0.036 0.134,-0.047 0.123,-0.059C0.109,-0.072 0.098,-0.085 0.089,-0.099C0.079,-0.113 0.071,-0.128 0.064,-0.144C0.058,-0.158 0.052,-0.174 0.049,-0.192C0.046,-0.211 0.044,-0.229 0.044,-0.244ZM0.43,-0.243C0.43,-0.28 0.418,-0.31 0.395,-0.335C0.384,-0.347 0.371,-0.357 0.357,-0.363C0.342,-0.369 0.327,-0.373 0.312,-0.373C0.296,-0.373 0.28,-0.369 0.266,-0.363C0.252,-0.357 0.24,-0.347 0.228,-0.335C0.216,-0.322 0.207,-0.309 0.202,-0.294C0.196,-0.278 0.193,-0.261 0.193,-0.243C0.193,-0.225 0.196,-0.208 0.202,-0.193C0.208,-0.177 0.216,-0.163 0.228,-0.151C0.24,-0.139 0.252,-0.129 0.266,-0.124C0.279,-0.117 0.294,-0.114 0.312,-0.114C0.328,-0.114 0.344,-0.117 0.357,-0.124C0.371,-0.129 0.383,-0.139 0.395,-0.151C0.407,-0.163 0.415,-0.177 0.421,-0.193C0.427,-0.208 0.43,-0.224 0.43,-0.243Z" style="fill:white;fill-rule:nonzero;"/>
                </g>
                <g transform="matrix(10.6213,0,0,10.6213,631.866,301.898)">
                    <path d="M0.044,-0.489L0.181,-0.489L0.181,-0.451C0.194,-0.464 0.209,-0.474 0.224,-0.481C0.239,-0.489 0.256,-0.495 0.275,-0.499C0.296,-0.503 0.316,-0.505 0.334,-0.505C0.352,-0.505 0.369,-0.503 0.384,-0.5C0.4,-0.498 0.415,-0.493 0.428,-0.487C0.442,-0.481 0.454,-0.473 0.464,-0.464C0.475,-0.455 0.484,-0.445 0.492,-0.433C0.496,-0.425 0.5,-0.417 0.504,-0.409C0.507,-0.401 0.509,-0.393 0.512,-0.383C0.514,-0.373 0.515,-0.361 0.516,-0.346C0.517,-0.33 0.518,-0.313 0.518,-0.292L0.518,0L0.373,0L0.373,-0.251C0.373,-0.28 0.371,-0.303 0.368,-0.321C0.365,-0.338 0.361,-0.349 0.356,-0.356C0.351,-0.363 0.344,-0.368 0.335,-0.372C0.324,-0.375 0.311,-0.377 0.295,-0.377C0.284,-0.377 0.274,-0.376 0.266,-0.375C0.257,-0.373 0.248,-0.37 0.24,-0.366C0.232,-0.362 0.225,-0.358 0.219,-0.353C0.214,-0.348 0.209,-0.343 0.204,-0.336L0.204,-0.335C0.201,-0.332 0.198,-0.327 0.196,-0.321C0.194,-0.315 0.192,-0.309 0.191,-0.302C0.19,-0.294 0.189,-0.284 0.188,-0.271C0.187,-0.255 0.187,-0.24 0.187,-0.225L0.187,0L0.044,0L0.044,-0.489Z" style="fill:white;fill-rule:nonzero;"/>
                </g>
            </g>
        </g>
    </g>
</svg>
